<?xml version="1.0" encoding="UTF-8"?>
<svg width="48px" height="59px" viewBox="0 0 48 59" version="1.1" xmlns="http://www.w3.org/2000/svg" xmlns:xlink="http://www.w3.org/1999/xlink">
    <!-- Generator: Sketch 50.2 (55047) - http://www.bohemiancoding.com/sketch -->
    <title>pin-meetup-group</title>
    <desc>Created with Sketch.</desc>
    <defs>
        <filter x="-23.7%" y="-150.0%" width="147.4%" height="400.0%" filterUnits="objectBoundingBox" id="filter-1">
            <feGaussianBlur stdDeviation="3" in="SourceGraphic"></feGaussianBlur>
        </filter>
        <filter x="-7.9%" y="-125.0%" width="115.8%" height="350.0%" filterUnits="objectBoundingBox" id="filter-2">
            <feGaussianBlur stdDeviation="1" in="SourceGraphic"></feGaussianBlur>
        </filter>
    </defs>
    <g id="VuePeople-updates-1.1" stroke="none" stroke-width="1" fill="none" fill-rule="evenodd">
        <g id="Map---component-(New-pins---inventory)" transform="translate(-60.000000, -135.000000)">
            <g id="pin-meetup-group" transform="translate(62.000000, 136.000000)">
                <g id="Group-8" transform="translate(3.000000, 46.000000)" fill="#000000">
                    <ellipse id="Oval-2" fill-opacity="0.2" filter="url(#filter-1)" cx="19" cy="3" rx="19" ry="3"></ellipse>
                    <ellipse id="Oval-2" fill-opacity="0.1" filter="url(#filter-2)" cx="19" cy="3.6" rx="19" ry="1.2"></ellipse>
                </g>
                <circle id="Oval-4" stroke="#9E9E9E" fill="#FFFFFF" stroke-linecap="round" stroke-linejoin="round" cx="22" cy="22" r="22.5"></circle>
                <path d="M31.9757873,28.5578086 C31.1267684,28.792615 30.2571632,28.9573202 29.3709729,28.845 C28.7890398,28.7712792 28.2136814,28.5654436 28.0549145,27.9372619 C27.9500031,27.5222539 27.9507242,27.0324788 28.0632,26.619422 C28.3393771,25.6058676 28.6639238,24.6002875 29.0482077,23.6223351 C29.6965658,21.9738122 30.4202566,20.3557589 31.084719,18.7134006 C31.445914,17.8206781 31.5970458,16.9035516 31.236586,15.9537783 C30.9915288,15.3086721 30.6077539,14.7639812 29.9666067,14.5358625 C28.8614739,14.1430527 27.7372394,14.0582046 26.6519861,14.6709748 C26.1956215,14.9285026 26.0325281,14.8929571 25.6381206,14.5445863 C25.4464806,14.3753565 25.2416912,14.2178339 25.068135,14.0311001 C24.3146675,13.2202283 22.7728234,13.3493315 22.0591007,14.0461157 C21.773408,14.3251207 21.4606391,14.5772332 21.150698,14.8295437 C20.7719848,15.1380002 20.3444779,15.2626355 19.8756144,15.065764 C19.5395586,14.9241902 19.21644,14.7504077 18.8890231,14.5879082 C18.0255825,14.1582663 17.1640647,13.7699527 16.1527301,14.0784092 C15.1854244,14.3738719 14.3419622,14.8501584 13.8212934,15.7311314 C13.0602899,17.0186573 12.6730367,18.4643703 12.1928196,19.8679915 C11.9488087,20.5809932 11.7384345,21.3059705 11.5133981,22.0254761 C11.2719322,22.7982716 11.0246693,23.5692714 10.7920827,24.3443857 C10.5466014,25.1623836 10.3125443,25.9835627 10.0785155,26.8047843 C9.82548394,27.6918653 9.95352675,28.5304213 10.4771082,29.2839029 C11.1355474,30.2313292 12.0996153,30.6042596 13.215932,30.5896398 C13.5737053,30.5846346 13.9499018,30.5013135 14.2821683,30.3665971 C14.9385291,30.101307 15.3286242,29.5369204 15.5872549,28.9170948 C16.285962,27.2398273 16.9455606,25.5465544 17.6162725,23.8578626 C18.1770536,22.4470305 18.7237664,21.0305569 19.2937521,19.6233585 C19.4557426,19.22437 19.793792,18.999885 20.2235187,18.9617946 C20.6170072,18.9269278 20.8974967,19.1616918 21.0400179,19.4865778 C21.2241784,19.9079342 21.176742,20.3628566 21.0188659,20.7918198 C20.7934902,21.4053253 20.553311,22.0137408 20.313259,22.6216472 C19.8650102,23.755468 19.4107664,24.8867579 18.9623338,26.0201969 C18.7570072,26.5383489 18.5672053,27.0566989 18.6538632,27.6355356 C18.7151416,28.0435023 18.9432038,28.3117192 19.3067882,28.4482172 C20.3862304,28.8518998 21.3822666,28.4563754 21.9121681,27.4182615 C22.471493,26.3237754 23.0151093,25.2215695 23.5693724,24.1242556 C24.3082201,22.6608546 25.0410588,21.1936079 25.7985134,19.7397366 C26.0271694,19.3005227 26.2989776,18.8755749 26.6061898,18.487629 C26.851247,18.1775606 27.245697,18.1462852 27.5800137,18.3196859 C27.9072326,18.4899619 27.8496445,18.7998888 27.8364245,19.082881 C27.8293833,19.2368123 27.8044421,19.3994957 27.742697,19.5389204 C27.4051849,20.2979869 27.0549618,21.0518078 26.7069727,21.806364 C26.0396117,23.2546221 25.3289572,24.6857154 24.7143488,26.1563555 C24.1532001,27.4994901 24.3985118,28.7915122 25.3157655,29.9053121 C26.4600774,31.2953316 28.0280645,31.582523 29.7190327,31.415089 C31.1049378,31.2778275 32.4599915,30.9854471 33.7739291,30.508284 C33.7739291,30.508284 34.3882688,29.3524064 33.7739291,28.8962963 C33.1595753,28.4402003 31.9757873,28.5578086 31.9757873,28.5578086" id="Fill-1" fill="#F64060"></path>
            </g>
        </g>
    </g>
</svg>