<?xml version="1.0" encoding="UTF-8"?>
<svg width="34px" height="61px" viewBox="0 0 34 61" version="1.1" xmlns="http://www.w3.org/2000/svg" xmlns:xlink="http://www.w3.org/1999/xlink">
    <!-- Generator: Sketch 50.2 (55047) - http://www.bohemiancoding.com/sketch -->
    <title>pin-meetup-1 copy</title>
    <desc>Created with Sketch.</desc>
    <defs>
        <filter x="-53.6%" y="-226.7%" width="207.1%" height="553.3%" filterUnits="objectBoundingBox" id="filter-1">
            <feGaussianBlur stdDeviation="3" in="SourceGraphic"></feGaussianBlur>
        </filter>
        <filter x="-17.9%" y="-188.9%" width="135.7%" height="477.8%" filterUnits="objectBoundingBox" id="filter-2">
            <feGaussianBlur stdDeviation="1" in="SourceGraphic"></feGaussianBlur>
        </filter>
    </defs>
    <g id="VuePeople-updates-1.1" stroke="none" stroke-width="1" fill="none" fill-rule="evenodd">
        <g id="Map---component-(New-pins---inventory)" transform="translate(-317.000000, -514.000000)">
            <g id="pin-meetup-1-copy" transform="translate(318.000000, 515.000000)">
                <ellipse id="Oval-2" fill-opacity="0.3" fill="#000000" filter="url(#filter-1)" cx="15.6" cy="51.2205882" rx="8.4" ry="1.98529412"></ellipse>
                <ellipse id="Oval-2" fill-opacity="0.1" fill="#000000" filter="url(#filter-2)" cx="15.6" cy="51.6176471" rx="8.4" ry="1"></ellipse>
                <path d="M22.1402631,32.2647059 C18.4901898,37.6994813 16.2428122,43.7688906 16.2428122,50.6680336 L15.2428122,50.6680336 C15.2428122,43.7685592 13.0036398,37.6985866 9.36728118,32.2647059 L3.8458278,32.2647059 C2.55112051,32.2647059 1.93687657,32.1460899 1.29893202,31.8049134 C0.72290889,31.4968529 0.267852995,31.041797 -0.0402075433,30.4657739 C-0.381384023,29.8278293 -0.5,29.2135854 -0.5,27.9188781 L-0.5,3.8458278 C-0.5,2.55112051 -0.381384023,1.93687657 -0.0402075433,1.29893202 C0.267852995,0.72290889 0.72290889,0.267852995 1.29893202,-0.0402075433 C1.93687657,-0.381384023 2.55112051,-0.5 3.8458278,-0.5 L28.1541722,-0.5 C29.4488795,-0.5 30.0631234,-0.381384023 30.701068,-0.0402075433 C31.2770911,0.267852995 31.732147,0.72290889 32.0402075,1.29893202 C32.381384,1.93687657 32.5,2.55112051 32.5,3.8458278 L32.5,27.9188781 C32.5,29.2135854 32.381384,29.8278293 32.0402075,30.4657739 C31.732147,31.041797 31.2770911,31.4968529 30.701068,31.8049134 C30.0631234,32.1460899 29.4488795,32.2647059 28.1541722,32.2647059 L22.1402631,32.2647059 Z" id="Combined-Shape" stroke="#9E9E9E" fill="#FFFFFF" stroke-linecap="round" stroke-linejoin="round"></path>
                <path d="M24.9244878,20.9039237 C24.2103338,21.0974444 23.4788636,21.2331898 22.7334427,21.1406187 C22.2439485,21.0798601 21.7599845,20.9102163 21.6264374,20.3924867 C21.538191,20.0504489 21.5387975,19.6467902 21.6334068,19.3063605 C21.8657138,18.4710178 22.1387069,17.6422473 22.4619481,16.8362468 C23.0073159,15.477581 23.6160499,14.1440275 24.1749639,12.7904425 C24.4787838,12.054686 24.6059086,11.2988164 24.3027072,10.5160402 C24.0965768,9.98436207 23.7737637,9.53544327 23.2344613,9.34743435 C22.3048766,9.0236917 21.3592243,8.95376226 20.4463612,9.45879008 C20.0624892,9.67103717 19.9253028,9.64174161 19.5935461,9.35462423 C19.4323477,9.2151499 19.2600888,9.08532423 19.1141015,8.93142353 C18.4803208,8.26312603 17.1833954,8.36952925 16.583046,8.94379898 C16.342735,9.17374692 16.0796488,9.38153092 15.8189412,9.58947807 C15.5003858,9.84369914 15.1407874,9.94642002 14.7464019,9.78416414 C14.4637279,9.66748301 14.191936,9.52425643 13.9165286,9.39032891 C13.1902436,9.03623029 12.4655762,8.71619328 11.61489,8.97041435 C10.8012387,9.21392634 10.0917587,9.60646809 9.65379703,10.332541 C9.01367729,11.3936832 8.68793849,12.5851988 8.28400286,13.7420235 C8.07875257,14.3296592 7.90179585,14.9271649 7.71250603,15.520161 C7.50939649,16.157077 7.30141079,16.7925132 7.10577009,17.4313403 C6.89928292,18.1055109 6.70240533,18.7823034 6.50555153,19.4591309 C6.29271347,20.1902379 6.40041695,20.8813519 6.84082856,21.50235 C7.39467611,22.2831918 8.20560386,22.5905504 9.14459601,22.5785012 C9.4455378,22.5743761 9.76197623,22.5057052 10.041463,22.3946757 C10.5935622,22.1760312 10.9216915,21.7108798 11.1392392,21.2000371 C11.7269582,19.817681 12.281781,18.4221336 12.8459517,17.0303618 C13.3176539,15.8675941 13.7775226,14.7001768 14.2569672,13.5404039 C14.3932259,13.2115689 14.6775768,13.0265548 15.0390424,12.9951617 C15.370026,12.9664255 15.6059604,13.1599113 15.7258424,13.4276732 C15.8807494,13.7749431 15.8408482,14.1498773 15.7080503,14.5034165 C15.5184751,15.0090503 15.3164478,15.510489 15.1145276,16.0115082 C14.7374822,16.9459711 14.3553941,17.878348 13.978194,18.8124963 C13.8054831,19.2395424 13.6458308,19.6667518 13.7187233,20.1438125 C13.7702678,20.4800471 13.9621027,20.7011038 14.2679326,20.8136015 C15.1759076,21.1463053 16.0137256,20.8203253 16.4594534,19.9647414 C16.9299306,19.0626971 17.3871947,18.1542902 17.8534142,17.2499153 C18.4748976,16.0438219 19.0913263,14.8345588 19.7284609,13.6363195 C19.9207954,13.2743318 20.1494274,12.924102 20.4078396,12.6043679 C20.61397,12.3488184 20.9457624,12.3230421 21.2269736,12.465954 C21.5022145,12.6062907 21.4537741,12.8617236 21.4426541,13.0949577 C21.4367314,13.2218235 21.415752,13.3559025 21.3638151,13.4708124 C21.079916,14.0964135 20.7853251,14.7176913 20.4926133,15.339575 C19.9312613,16.5331881 19.3334927,17.7126545 18.8165136,18.9247143 C18.3445021,20.0316876 18.5508466,21.0965355 19.3223965,22.0144978 C20.2849368,23.1601123 21.6038525,23.3968073 23.026214,23.2588129 C24.191971,23.145686 25.3317773,22.9047143 26.4369986,22.5114501 C26.4369986,22.5114501 26.9537517,21.5588086 26.4369986,21.1828956 C25.9202336,20.8069943 24.9244878,20.9039237 24.9244878,20.9039237" id="Fill-1" fill="#F64060"></path>
            </g>
        </g>
    </g>
</svg>