<?xml version="1.0" encoding="UTF-8"?>
<svg width="48px" height="55px" viewBox="0 0 48 55" version="1.1" xmlns="http://www.w3.org/2000/svg" xmlns:xlink="http://www.w3.org/1999/xlink">
    <!-- Generator: Sketch 50.2 (55047) - http://www.bohemiancoding.com/sketch -->
    <title>pin-meetup-0-selected</title>
    <desc>Created with Sketch.</desc>
    <defs>
        <filter x="-23.7%" y="-150.0%" width="147.4%" height="400.0%" filterUnits="objectBoundingBox" id="filter-1">
            <feGaussianBlur stdDeviation="3" in="SourceGraphic"></feGaussianBlur>
        </filter>
        <filter x="-7.9%" y="-125.0%" width="115.8%" height="350.0%" filterUnits="objectBoundingBox" id="filter-2">
            <feGaussianBlur stdDeviation="1" in="SourceGraphic"></feGaussianBlur>
        </filter>
    </defs>
    <g id="VuePeople-updates-1.1" stroke="none" stroke-width="1" fill="none" fill-rule="evenodd">
        <g id="Map---component-(New-pins---inventory)" transform="translate(-561.000000, -252.000000)">
            <g id="pin-meetup-0-selected" transform="translate(565.000000, 253.000000)">
                <g id="Group-8" transform="translate(1.000000, 42.000000)" fill="#000000">
                    <ellipse id="Oval-2" fill-opacity="0.2" filter="url(#filter-1)" cx="19" cy="3" rx="19" ry="3"></ellipse>
                    <ellipse id="Oval-2" fill-opacity="0.1" filter="url(#filter-2)" cx="19" cy="3.6" rx="19" ry="1.2"></ellipse>
                </g>
                <rect id="Combined-Shape" stroke="#C82F4A" fill="#F64060" stroke-linecap="round" stroke-linejoin="round" x="-0.5" y="-0.5" width="41" height="41" rx="3"></rect>
                <path d="M29.9757873,26.5578086 C29.1267684,26.792615 28.2571632,26.9573202 27.3709729,26.845 C26.7890398,26.7712792 26.2136814,26.5654436 26.0549145,25.9372619 C25.9500031,25.5222539 25.9507242,25.0324788 26.0632,24.619422 C26.3393771,23.6058676 26.6639238,22.6002875 27.0482077,21.6223351 C27.6965658,19.9738122 28.4202566,18.3557589 29.084719,16.7134006 C29.445914,15.8206781 29.5970458,14.9035516 29.236586,13.9537783 C28.9915288,13.3086721 28.6077539,12.7639812 27.9666067,12.5358625 C26.8614739,12.1430527 25.7372394,12.0582046 24.6519861,12.6709748 C24.1956215,12.9285026 24.0325281,12.8929571 23.6381206,12.5445863 C23.4464806,12.3753565 23.2416912,12.2178339 23.068135,12.0311001 C22.3146675,11.2202283 20.7728234,11.3493315 20.0591007,12.0461157 C19.773408,12.3251207 19.4606391,12.5772332 19.150698,12.8295437 C18.7719848,13.1380002 18.3444779,13.2626355 17.8756144,13.065764 C17.5395586,12.9241902 17.21644,12.7504077 16.8890231,12.5879082 C16.0255825,12.1582663 15.1640647,11.7699527 14.1527301,12.0784092 C13.1854244,12.3738719 12.3419622,12.8501584 11.8212934,13.7311314 C11.0602899,15.0186573 10.6730367,16.4643703 10.1928196,17.8679915 C9.9488087,18.5809932 9.73843447,19.3059705 9.5133981,20.0254761 C9.27193221,20.7982716 9.02466933,21.5692714 8.79208273,22.3443857 C8.54660136,23.1623836 8.31254431,23.9835627 8.07851554,24.8047843 C7.82548394,25.6918653 7.95352675,26.5304213 8.47710817,27.2839029 C9.13554739,28.2313292 10.0996153,28.6042596 11.215932,28.5896398 C11.5737053,28.5846346 11.9499018,28.5013135 12.2821683,28.3665971 C12.9385291,28.101307 13.3286242,27.5369204 13.5872549,26.9170948 C14.285962,25.2398273 14.9455606,23.5465544 15.6162725,21.8578626 C16.1770536,20.4470305 16.7237664,19.0305569 17.2937521,17.6233585 C17.4557426,17.22437 17.793792,16.999885 18.2235187,16.9617946 C18.6170072,16.9269278 18.8974967,17.1616918 19.0400179,17.4865778 C19.2241784,17.9079342 19.176742,18.3628566 19.0188659,18.7918198 C18.7934902,19.4053253 18.553311,20.0137408 18.313259,20.6216472 C17.8650102,21.755468 17.4107664,22.8867579 16.9623338,24.0201969 C16.7570072,24.5383489 16.5672053,25.0566989 16.6538632,25.6355356 C16.7151416,26.0435023 16.9432038,26.3117192 17.3067882,26.4482172 C18.3862304,26.8518998 19.3822666,26.4563754 19.9121681,25.4182615 C20.471493,24.3237754 21.0151093,23.2215695 21.5693724,22.1242556 C22.3082201,20.6608546 23.0410588,19.1936079 23.7985134,17.7397366 C24.0271694,17.3005227 24.2989776,16.8755749 24.6061898,16.487629 C24.851247,16.1775606 25.245697,16.1462852 25.5800137,16.3196859 C25.9072326,16.4899619 25.8496445,16.7998888 25.8364245,17.082881 C25.8293833,17.2368123 25.8044421,17.3994957 25.742697,17.5389204 C25.4051849,18.2979869 25.0549618,19.0518078 24.7069727,19.806364 C24.0396117,21.2546221 23.3289572,22.6857154 22.7143488,24.1563555 C22.1532001,25.4994901 22.3985118,26.7915122 23.3157655,27.9053121 C24.4600774,29.2953316 26.0280645,29.582523 27.7190327,29.415089 C29.1049378,29.2778275 30.4599915,28.9854471 31.7739291,28.508284 C31.7739291,28.508284 32.3882688,27.3524064 31.7739291,26.8962963 C31.1595753,26.4402003 29.9757873,26.5578086 29.9757873,26.5578086" id="Fill-1" fill="#FFFFFF"></path>
            </g>
        </g>
    </g>
</svg>