<?xml version="1.0" encoding="UTF-8"?>
<svg width="40px" height="50px" viewBox="0 0 40 50" version="1.1" xmlns="http://www.w3.org/2000/svg" xmlns:xlink="http://www.w3.org/1999/xlink">
    <!-- Generator: Sketch 50.2 (55047) - http://www.bohemiancoding.com/sketch -->
    <title>pin-meetup-group copy</title>
    <desc>Created with Sketch.</desc>
    <defs>
        <filter x="-30.0%" y="-180.0%" width="160.0%" height="460.0%" filterUnits="objectBoundingBox" id="filter-1">
            <feGaussianBlur stdDeviation="3" in="SourceGraphic"></feGaussianBlur>
        </filter>
        <filter x="-10.0%" y="-150.0%" width="120.0%" height="400.0%" filterUnits="objectBoundingBox" id="filter-2">
            <feGaussianBlur stdDeviation="1" in="SourceGraphic"></feGaussianBlur>
        </filter>
    </defs>
    <g id="VuePeople-updates-1.1" stroke="none" stroke-width="1" fill="none" fill-rule="evenodd">
        <g id="Map---component-(New-pins---inventory)" transform="translate(-82.000000, -512.000000)">
            <g id="pin-meetup-group-copy" transform="translate(84.000000, 513.000000)">
                <g id="Group-8" transform="translate(3.000000, 38.000000)" fill="#000000">
                    <ellipse id="Oval-2" fill-opacity="0.2" filter="url(#filter-1)" cx="15" cy="2.5" rx="15" ry="2.5"></ellipse>
                    <ellipse id="Oval-2" fill-opacity="0.1" filter="url(#filter-2)" cx="15" cy="3" rx="15" ry="1"></ellipse>
                </g>
                <circle id="Oval-4" stroke="#9E9E9E" fill="#FFFFFF" stroke-linecap="round" stroke-linejoin="round" cx="18" cy="18" r="18.5"></circle>
                <path d="M26.2807446,22.5813513 C25.5759873,22.7771759 24.8541417,22.9145373 24.118529,22.8208641 C23.6354755,22.7593823 23.1578795,22.5877188 23.0260896,22.0638259 C22.9390043,21.7177162 22.9396028,21.309252 23.0329672,20.9647696 C23.2622175,20.1194823 23.5316186,19.2808455 23.8506067,18.4652497 C24.3887986,17.0904094 24.9895229,15.7409802 25.5410828,14.3712811 C25.8409051,13.6267655 25.9663572,12.8618976 25.6671452,12.0698026 C25.4637271,11.5317949 25.1451615,11.0775319 24.6129553,10.8872848 C23.6956019,10.559688 22.7623924,10.4889261 21.8615407,10.9999661 C21.4827196,11.21474 21.3473383,11.1850957 21.0199469,10.8945602 C20.8608695,10.7534255 20.6908771,10.6220543 20.5468107,10.4663214 C19.9213692,9.79006801 18.6415086,9.89773793 18.0490585,10.4788442 C17.8119095,10.7115296 17.552285,10.9217872 17.2950077,11.13221 C16.9806438,11.3894575 16.6257771,11.4934012 16.2365809,11.3292137 C15.9576262,11.2111435 15.6894105,11.0662119 15.4176269,10.93069 C14.7008983,10.5723759 13.985766,10.2485289 13.146273,10.5057764 C12.3433277,10.7521874 11.6431829,11.1494022 11.2109839,11.8841189 C10.5792868,12.9578937 10.257834,14.163594 9.85921335,15.3341905 C9.65666372,15.9288218 9.48203538,16.5334407 9.29523622,17.1334962 C9.09479917,17.7779946 8.88955012,18.4209955 8.69648364,19.0674277 C8.4927134,19.7496242 8.29842631,20.4344737 8.1041627,21.1193587 C7.89412514,21.8591693 8.00041147,22.5585108 8.43502819,23.1869018 C8.98158826,23.9770393 9.78184592,24.288057 10.7084829,24.2758643 C11.0054649,24.2716901 11.3177397,24.2022017 11.593549,24.0898504 C12.1383838,23.868603 12.4621956,23.3979141 12.6768808,22.88099 C13.2568666,21.4821772 13.8043891,20.0700162 14.3611365,18.6616757 C14.8266322,17.4850655 15.2804499,16.3037504 15.753586,15.1301706 C15.8880518,14.7974209 16.1686614,14.6102043 16.5253708,14.5784375 C16.8519994,14.5493592 17.0848293,14.7451484 17.2031339,15.0160978 C17.3560027,15.367502 17.3166265,15.7468996 17.185576,16.1046477 C16.9984952,16.6163009 16.7991261,17.1237091 16.5998627,17.6306928 C16.2277784,18.5762802 15.8507178,19.5197569 15.4784809,20.465026 C15.3080426,20.897156 15.1504909,21.3294512 15.2224243,21.8121912 C15.2732906,22.1524286 15.4626014,22.376117 15.7644071,22.4899539 C16.6604352,22.8266185 17.4872292,22.4967577 17.9270922,21.6309883 C18.3913789,20.7182054 18.8426263,19.7989842 19.3027114,18.8838429 C19.9160173,17.6633912 20.5243352,16.4397322 21.1530864,15.227228 C21.3428902,14.860931 21.5685139,14.5065317 21.823526,14.1829914 C22.0269441,13.9243996 22.3543708,13.8983164 22.6318818,14.0429297 C22.9035012,14.184937 22.8556981,14.4434108 22.8447244,14.6794215 C22.8388796,14.8077976 22.8181763,14.9434728 22.7669228,15.0597507 C22.4867592,15.6927993 22.1960445,16.3214733 21.9071842,16.9507604 C21.3532183,18.1585832 20.7633151,19.3520909 20.2531384,20.57858 C19.7873376,21.6987315 19.990967,22.7762562 20.7523649,23.7051466 C21.7022403,24.8643994 23.0038018,25.1039122 24.407448,24.964275 C25.5578661,24.8498013 26.682675,24.6059609 27.7733539,24.208015 C27.7733539,24.208015 28.2833076,23.2440325 27.7733539,22.8636444 C27.2633884,22.4832681 26.2807446,22.5813513 26.2807446,22.5813513" id="Fill-1" fill="#F64060"></path>
            </g>
        </g>
    </g>
</svg>