<?xml version="1.0" encoding="UTF-8"?>
<svg width="32px" height="58px" viewBox="0 0 32 58" version="1.1" xmlns="http://www.w3.org/2000/svg" xmlns:xlink="http://www.w3.org/1999/xlink">
    <!-- Generator: Sketch 50.2 (55047) - http://www.bohemiancoding.com/sketch -->
    <title>pin-meetup-1 copy</title>
    <desc>Created with Sketch.</desc>
    <defs>
        <filter x="-57.1%" y="-240.0%" width="214.3%" height="580.0%" filterUnits="objectBoundingBox" id="filter-1">
            <feGaussianBlur stdDeviation="3" in="SourceGraphic"></feGaussianBlur>
        </filter>
        <filter x="-19.0%" y="-200.0%" width="138.1%" height="500.0%" filterUnits="objectBoundingBox" id="filter-2">
            <feGaussianBlur stdDeviation="1" in="SourceGraphic"></feGaussianBlur>
        </filter>
    </defs>
    <g id="VuePeople-updates-1.1" stroke="none" stroke-width="1" fill="none" fill-rule="evenodd">
        <g id="Map---component-(New-pins---inventory)" transform="translate(-317.000000, -514.000000)">
            <g id="pin-meetup-1-copy" transform="translate(318.000000, 515.000000)">
                <ellipse id="Oval-2" fill-opacity="0.3" fill="#000000" filter="url(#filter-1)" cx="14.625" cy="48.375" rx="7.875" ry="1.875"></ellipse>
                <ellipse id="Oval-2" fill-opacity="0.1" fill="#000000" filter="url(#filter-2)" cx="14.625" cy="48.75" rx="7.875" ry="1"></ellipse>
                <path d="M20.7742526,30.5 C17.3603441,35.6253697 15.2588864,41.3485377 15.2588864,47.8531429 L14.2588864,47.8531429 C14.2588864,41.3482235 12.1651076,35.6245251 8.76403722,30.5 L3.8458278,30.5 C2.55112051,30.5 1.93687657,30.381384 1.29893202,30.0402075 C0.72290889,29.732147 0.267852995,29.2770911 -0.0402075433,28.701068 C-0.381384023,28.0631234 -0.5,27.4488795 -0.5,26.1541722 L-0.5,3.8458278 C-0.5,2.55112051 -0.381384023,1.93687657 -0.0402075433,1.29893202 C0.267852995,0.72290889 0.72290889,0.267852995 1.29893202,-0.0402075433 C1.93687657,-0.381384023 2.55112051,-0.5 3.8458278,-0.5 L26.1541722,-0.5 C27.4488795,-0.5 28.0631234,-0.381384023 28.701068,-0.0402075433 C29.2770911,0.267852995 29.732147,0.72290889 30.0402075,1.29893202 C30.381384,1.93687657 30.5,2.55112051 30.5,3.8458278 L30.5,26.1541722 C30.5,27.4488795 30.381384,28.0631234 30.0402075,28.701068 C29.732147,29.2770911 29.2770911,29.732147 28.701068,30.0402075 C28.0631234,30.381384 27.4488795,30.5 26.1541722,30.5 L20.7742526,30.5 Z" id="Combined-Shape" stroke="#9E9E9E" fill="#FFFFFF" stroke-linecap="round" stroke-linejoin="round"></path>
                <path d="M23.3667073,19.7425946 C22.697188,19.9253642 22.0114346,20.0535682 21.3126026,19.9661399 C20.8537017,19.9087568 20.3999855,19.7485376 20.2747851,19.2595708 C20.1920541,18.9365351 20.1926227,18.5553019 20.2813188,18.233785 C20.4991066,17.4448501 20.7550377,16.6621225 21.0580764,15.9008997 C21.5693587,14.6177154 22.1400468,13.3582482 22.6640286,12.0798623 C22.9488598,11.3849812 23.0680393,10.6711044 22.783788,9.93181576 C22.5905407,9.42967529 22.2879034,9.00569643 21.7823075,8.82813244 C20.9108218,8.52237549 20.0242728,8.45633102 19.1684637,8.93330174 C18.8085836,9.13375732 18.6799714,9.1060893 18.3689495,8.83492288 C18.217826,8.70319713 18.0563332,8.58058399 17.9194702,8.43523333 C17.3253007,7.80406347 16.1094331,7.9045554 15.5466056,8.44692125 C15.321314,8.66409431 15.0746707,8.86033476 14.8302573,9.05672929 C14.5316117,9.29682696 14.1944882,9.39384113 13.8247518,9.24059947 C13.5597449,9.13040062 13.30494,8.99513107 13.0467455,8.86864397 C12.3658534,8.53421749 11.6864777,8.23196032 10.8889593,8.47205799 C10.1261613,8.70204154 9.46102376,9.07277542 9.05043472,9.75851093 C8.45032246,10.7607008 8.14494233,11.8860211 7.76625269,12.9785778 C7.57383054,13.533567 7.40793361,14.097878 7.2304744,14.6579298 C7.04005921,15.2594617 6.84507262,15.8595958 6.66165946,16.4629325 C6.46807773,17.0996492 6.283505,17.7388421 6.09895456,18.3780681 C5.89941888,19.068558 6.00039089,19.7212768 6.41327678,20.307775 C6.93250885,21.0452367 7.69275362,21.3355198 8.57305876,21.3241401 C8.85519169,21.3202441 9.15185272,21.2553882 9.41387152,21.1505271 C9.93146458,20.9440294 10.2390858,20.5047198 10.4430368,20.0222573 C10.9940233,18.7166987 11.5141697,17.3986817 12.0430797,16.0842306 C12.4853005,14.9860611 12.9164274,13.8835004 13.3659067,12.7881593 C13.4936493,12.4775929 13.7602283,12.3028573 14.0991022,12.2732083 C14.4093994,12.2460686 14.6305879,12.4288052 14.7429772,12.6816913 C14.8882025,13.0096685 14.8507952,13.363773 14.7262972,13.6976712 C14.5485704,14.1752142 14.3591698,14.6487952 14.1698696,15.12198 C13.8163895,16.0045282 13.4581819,16.8851065 13.1045569,17.7673576 C12.9426404,18.170679 12.7929664,18.5741544 12.8613031,19.0247118 C12.9096261,19.3422667 13.0894713,19.5510425 13.3761868,19.6572903 C14.2274134,19.9715106 15.0128677,19.6636406 15.4307375,18.8555891 C15.87181,18.0036583 16.300495,17.1457186 16.7375758,16.2915867 C17.3202165,15.1524984 17.8981184,14.0104167 18.4954321,12.8787462 C18.6757457,12.5368689 18.8900882,12.2060963 19.1323497,11.9041253 C19.3255969,11.662773 19.6366522,11.6384286 19.9002878,11.773401 C20.1583261,11.9059412 20.1129132,12.1471834 20.1024882,12.3674601 C20.0969357,12.4872778 20.0772675,12.613908 20.0285766,12.722434 C19.7624213,13.3132794 19.4862423,13.9000417 19.211825,14.4873764 C18.6855574,15.6146777 18.1251494,16.7286182 17.6404815,17.8733413 C17.1979708,18.9188161 17.3914187,19.9245058 18.1147467,20.7914701 C19.0171283,21.8734394 20.2536117,22.0969847 21.5870756,21.9666567 C22.6799728,21.8598145 23.7485412,21.6322302 24.7846862,21.260814 C24.7846862,21.260814 25.2691422,20.361097 24.7846862,20.0060681 C24.300219,19.6510502 23.3667073,19.7425946 23.3667073,19.7425946" id="Fill-1" fill="#F64060"></path>
            </g>
        </g>
    </g>
</svg>