<?xml version="1.0" encoding="UTF-8"?>
<svg width="40px" height="46px" viewBox="0 0 40 46" version="1.1" xmlns="http://www.w3.org/2000/svg" xmlns:xlink="http://www.w3.org/1999/xlink">
    <!-- Generator: Sketch 50.2 (55047) - http://www.bohemiancoding.com/sketch -->
    <title>pin-meetup-0-selected</title>
    <desc>Created with Sketch.</desc>
    <defs>
        <filter x="-30.0%" y="-180.0%" width="160.0%" height="460.0%" filterUnits="objectBoundingBox" id="filter-1">
            <feGaussianBlur stdDeviation="3" in="SourceGraphic"></feGaussianBlur>
        </filter>
        <filter x="-10.0%" y="-150.0%" width="120.0%" height="400.0%" filterUnits="objectBoundingBox" id="filter-2">
            <feGaussianBlur stdDeviation="1" in="SourceGraphic"></feGaussianBlur>
        </filter>
        <path d="M24.9244878,21.0587675 C24.2103338,21.2537218 23.4788636,21.3904727 22.7334427,21.2972159 C22.2439485,21.2360072 21.7599845,21.0651068 21.6264374,20.5435422 C21.538191,20.1989708 21.5387975,19.792322 21.6334068,19.4493706 C21.8657138,18.6078402 22.1387069,17.7729306 22.4619481,16.9609597 C23.0073159,15.5922298 23.6160499,14.2487981 24.1749639,12.8851865 C24.4787838,12.1439799 24.6059086,11.3825114 24.3027072,10.5939368 C24.0965768,10.0583203 23.7737637,9.60607619 23.2344613,9.4166746 C22.3048766,9.09053386 21.3592243,9.02008642 20.4463612,9.52885519 C20.0624892,9.74267448 19.9253028,9.71316192 19.5935461,9.42391774 C19.4323477,9.28341027 19.2600888,9.15262292 19.1141015,8.99758222 C18.4803208,8.32433437 17.1833954,8.43152576 16.583046,9.01004934 C16.342735,9.2417006 16.0796488,9.45102374 15.8189412,9.66051124 C15.5003858,9.91661543 15.1407874,10.0200972 14.7464019,9.85663943 C14.4637279,9.739094 14.191936,9.59480648 13.9165286,9.4598869 C13.1902436,9.10316533 12.4655762,8.78075767 11.61489,9.03686186 C10.8012387,9.28217765 10.0917587,9.67762711 9.65379703,10.4090783 C9.01367729,11.4780809 8.68793849,12.6784225 8.28400286,13.8438163 C8.07875257,14.4358048 7.90179585,15.0377365 7.71250603,15.6351251 C7.50939649,16.2767591 7.30141079,16.9169022 7.10577009,17.5604614 C6.89928292,18.2396258 6.70240533,18.9214316 6.50555153,19.6032726 C6.29271347,20.3397952 6.40041695,21.0360286 6.84082856,21.6616267 C7.39467611,22.4482525 8.20560386,22.7578878 9.14459601,22.7457494 C9.4455378,22.7415937 9.76197623,22.6724141 10.041463,22.5605622 C10.5935622,22.3402981 10.9216915,21.8717011 11.1392392,21.3570745 C11.7269582,19.9644786 12.281781,18.5585939 12.8459517,17.1565127 C13.3176539,15.9851318 13.7775226,14.809067 14.2569672,13.6407032 C14.3932259,13.3094324 14.6775768,13.1230478 15.0390424,13.0914222 C15.370026,13.0624731 15.6059604,13.2573922 15.7258424,13.5271374 C15.8807494,13.8769798 15.8408482,14.2546912 15.7080503,14.6108493 C15.5184751,15.1202285 15.3164478,15.6253815 15.1145276,16.130112 C14.7374822,17.0714968 14.3553941,18.0107802 13.978194,18.9518481 C13.8054831,19.3820576 13.6458308,19.8124314 13.7187233,20.2930259 C13.7702678,20.6317511 13.9621027,20.8544453 14.2679326,20.9677764 C15.1759076,21.3029446 16.0137256,20.9745499 16.4594534,20.1126283 C16.9299306,19.2039022 17.3871947,18.2887665 17.8534142,17.3776925 C18.4748976,16.162665 19.0913263,14.9444445 19.7284609,13.7373293 C19.9207954,13.3726602 20.1494274,13.019836 20.4078396,12.6977336 C20.61397,12.4402912 20.9457624,12.4143239 21.2269736,12.5582944 C21.5022145,12.6996706 21.4537741,12.9569957 21.4426541,13.1919574 C21.4367314,13.319763 21.415752,13.4548352 21.3638151,13.5705962 C21.079916,14.2008313 20.7853251,14.8267112 20.4926133,15.4532015 C19.9312613,16.6556562 19.3334927,17.8438594 18.8165136,19.0648974 C18.3445021,20.1800705 18.5508466,21.2528061 19.3223965,22.1775681 C20.2849368,23.3316687 21.6038525,23.570117 23.026214,23.4311004 C24.191971,23.3171355 25.3317773,23.0743789 26.4369986,22.6782016 C26.4369986,22.6782016 26.9537517,21.7185035 26.4369986,21.339806 C25.9202336,20.9611202 24.9244878,21.0587675 24.9244878,21.0587675" id="path-3"></path>
        <filter x="-2.5%" y="-3.3%" width="109.9%" height="113.4%" filterUnits="objectBoundingBox" id="filter-4">
            <feOffset dx="1" dy="1" in="SourceAlpha" result="shadowOffsetOuter1"></feOffset>
            <feColorMatrix values="0 0 0 0 0   0 0 0 0 0   0 0 0 0 0  0 0 0 0.12 0" type="matrix" in="shadowOffsetOuter1"></feColorMatrix>
        </filter>
    </defs>
    <g id="VuePeople-updates-1.1" stroke="none" stroke-width="1" fill="none" fill-rule="evenodd">
        <g id="Map---component-(New-pins---inventory)" transform="translate(-251.000000, -448.000000)">
            <g id="pin-meetup-0-selected" transform="translate(255.000000, 449.000000)">
                <g id="Group-8" transform="translate(1.000000, 34.000000)" fill="#000000">
                    <ellipse id="Oval-2" fill-opacity="0.2" filter="url(#filter-1)" cx="15" cy="2.5" rx="15" ry="2.5"></ellipse>
                    <ellipse id="Oval-2" fill-opacity="0.1" filter="url(#filter-2)" cx="15" cy="3" rx="15" ry="1"></ellipse>
                </g>
                <rect id="Combined-Shape" stroke="#C82F4A" fill="#F64060" stroke-linecap="round" stroke-linejoin="round" x="-0.5" y="-0.5" width="33" height="33" rx="3"></rect>
                <g id="Fill-1">
                    <use fill="black" fill-opacity="1" filter="url(#filter-4)" xlink:href="#path-3"></use>
                    <use fill="#FFFFFF" fill-rule="evenodd" xlink:href="#path-3"></use>
                </g>
            </g>
        </g>
    </g>
</svg>