<?xml version="1.0" encoding="UTF-8"?>
<svg width="38px" height="48px" viewBox="0 0 38 48" version="1.1" xmlns="http://www.w3.org/2000/svg" xmlns:xlink="http://www.w3.org/1999/xlink">
    <!-- Generator: Sketch 50.2 (55047) - http://www.bohemiancoding.com/sketch -->
    <title>pin-meetup-group copy</title>
    <desc>Created with Sketch.</desc>
    <defs>
        <filter x="-32.1%" y="-180.0%" width="164.3%" height="460.0%" filterUnits="objectBoundingBox" id="filter-1">
            <feGaussianBlur stdDeviation="3" in="SourceGraphic"></feGaussianBlur>
        </filter>
        <filter x="-10.7%" y="-150.0%" width="121.4%" height="400.0%" filterUnits="objectBoundingBox" id="filter-2">
            <feGaussianBlur stdDeviation="1" in="SourceGraphic"></feGaussianBlur>
        </filter>
    </defs>
    <g id="VuePeople-updates-1.1" stroke="none" stroke-width="1" fill="none" fill-rule="evenodd">
        <g id="Map---component-(New-pins---inventory)" transform="translate(-82.000000, -512.000000)">
            <g id="pin-meetup-group-copy" transform="translate(84.000000, 513.000000)">
                <g id="Group-8" transform="translate(3.000000, 36.000000)" fill="#000000">
                    <ellipse id="Oval-2" fill-opacity="0.2" filter="url(#filter-1)" cx="14" cy="2.5" rx="14" ry="2.5"></ellipse>
                    <ellipse id="Oval-2" fill-opacity="0.1" filter="url(#filter-2)" cx="14" cy="3" rx="14" ry="1"></ellipse>
                </g>
                <circle id="Oval-4" stroke="#9E9E9E" fill="#FFFFFF" stroke-linecap="round" stroke-linejoin="round" cx="17" cy="17" r="17.5"></circle>
                <path d="M25.3667073,21.7425946 C24.697188,21.9253642 24.0114346,22.0535682 23.3126026,21.9661399 C22.8537017,21.9087568 22.3999855,21.7485376 22.2747851,21.2595708 C22.1920541,20.9365351 22.1926227,20.5553019 22.2813188,20.233785 C22.4991066,19.4448501 22.7550377,18.6621225 23.0580764,17.9008997 C23.5693587,16.6177154 24.1400468,15.3582482 24.6640286,14.0798623 C24.9488598,13.3849812 25.0680393,12.6711044 24.783788,11.9318158 C24.5905407,11.4296753 24.2879034,11.0056964 23.7823075,10.8281324 C22.9108218,10.5223755 22.0242728,10.456331 21.1684637,10.9333017 C20.8085836,11.1337573 20.6799714,11.1060893 20.3689495,10.8349229 C20.217826,10.7031971 20.0563332,10.580584 19.9194702,10.4352333 C19.3253007,9.80406347 18.1094331,9.9045554 17.5466056,10.4469213 C17.321314,10.6640943 17.0746707,10.8603348 16.8302573,11.0567293 C16.5316117,11.296827 16.1944882,11.3938411 15.8247518,11.2405995 C15.5597449,11.1304006 15.30494,10.9951311 15.0467455,10.868644 C14.3658534,10.5342175 13.6864777,10.2319603 12.8889593,10.472058 C12.1261613,10.7020415 11.4610238,11.0727754 11.0504347,11.7585109 C10.4503225,12.7607008 10.1449423,13.8860211 9.76625269,14.9785778 C9.57383054,15.533567 9.40793361,16.097878 9.2304744,16.6579298 C9.04005921,17.2594617 8.84507262,17.8595958 8.66165946,18.4629325 C8.46807773,19.0996492 8.283505,19.7388421 8.09895456,20.3780681 C7.89941888,21.068558 8.00039089,21.7212768 8.41327678,22.307775 C8.93250885,23.0452367 9.69275362,23.3355198 10.5730588,23.3241401 C10.8551917,23.3202441 11.1518527,23.2553882 11.4138715,23.1505271 C11.9314646,22.9440294 12.2390858,22.5047198 12.4430368,22.0222573 C12.9940233,20.7166987 13.5141697,19.3986817 14.0430797,18.0842306 C14.4853005,16.9860611 14.9164274,15.8835004 15.3659067,14.7881593 C15.4936493,14.4775929 15.7602283,14.3028573 16.0991022,14.2732083 C16.4093994,14.2460686 16.6305879,14.4288052 16.7429772,14.6816913 C16.8882025,15.0096685 16.8507952,15.363773 16.7262972,15.6976712 C16.5485704,16.1752142 16.3591698,16.6487952 16.1698696,17.12198 C15.8163895,18.0045282 15.4581819,18.8851065 15.1045569,19.7673576 C14.9426404,20.170679 14.7929664,20.5741544 14.8613031,21.0247118 C14.9096261,21.3422667 15.0894713,21.5510425 15.3761868,21.6572903 C16.2274134,21.9715106 17.0128677,21.6636406 17.4307375,20.8555891 C17.87181,20.0036583 18.300495,19.1457186 18.7375758,18.2915867 C19.3202165,17.1524984 19.8981184,16.0104167 20.4954321,14.8787462 C20.6757457,14.5368689 20.8900882,14.2060963 21.1323497,13.9041253 C21.3255969,13.662773 21.6366522,13.6384286 21.9002878,13.773401 C22.1583261,13.9059412 22.1129132,14.1471834 22.1024882,14.3674601 C22.0969357,14.4872778 22.0772675,14.613908 22.0285766,14.722434 C21.7624213,15.3132794 21.4862423,15.9000417 21.211825,16.4873764 C20.6855574,17.6146777 20.1251494,18.7286182 19.6404815,19.8733413 C19.1979708,20.9188161 19.3914187,21.9245058 20.1147467,22.7914701 C21.0171283,23.8734394 22.2536117,24.0969847 23.5870756,23.9666567 C24.6799728,23.8598145 25.7485412,23.6322302 26.7846862,23.260814 C26.7846862,23.260814 27.2691422,22.361097 26.7846862,22.0060681 C26.300219,21.6510502 25.3667073,21.7425946 25.3667073,21.7425946" id="Fill-1" fill="#F64060"></path>
            </g>
        </g>
    </g>
</svg>