<?xml version="1.0" encoding="UTF-8"?>
<svg version="1.1" viewBox="0 0 36 36" xmlns="http://www.w3.org/2000/svg">
<title>pulilab logo</title>
<desc>Created with Sketch.</desc>
<g fill="none" fill-rule="evenodd">
<g transform="translate(-54 -690)">
<g transform="translate(30 30)">
<g transform="translate(24 660)">
<path d="m36 18.001c0-1.2909-1.0468-2.3366-2.3372-2.3366h-6.9438l6.0139-3.4717c1.1175-0.64561 1.5012-2.0744 0.85601-3.1916-0.64594-1.1183-2.075-1.501-3.1929-0.85605l-6.0132 3.4717 3.4716-6.0135c0.64558-1.1183 0.26259-2.5471-0.85387-3.1927-1.1172-0.64454-2.5473-0.26082-3.1925 0.85677l-3.4733 6.0138v-6.9453c0-1.2898-1.0446-2.3359-2.3358-2.3359-1.2894 0-2.3369 1.0461-2.3369 2.3359v6.9424l-3.4708-6.011c-0.64415-1.1176-2.0743-1.5006-3.1915-0.8557-1.1175 0.6449-1.5005 2.0744-0.85601 3.1916l3.4726 6.0145-6.0128-3.4724c-1.1182-0.64526-2.547-0.2626-3.1933 0.8557-0.64451 1.1172-0.26116 2.546 0.85565 3.1916l6.0146 3.4717h-6.9449c-1.2908 0-2.3355 1.0458-2.3355 2.3366 0 1.2898 1.0446 2.3356 2.3355 2.3356h6.9428l-6.0124 3.4721c-1.1168 0.6449-1.5002 2.074-0.85565 3.192 0.43301 0.74923 1.2197 1.1672 2.0268 1.1672 0.39549 0 0.79813-0.099682 1.1665-0.31298l6.0128-3.4717-3.4726 6.0138c-0.64451 1.1172-0.26152 2.5457 0.85601 3.1913 0.36763 0.21151 0.77027 0.31298 1.1654 0.31298 0.80742 0 1.5938-0.41945 2.0261-1.1687l3.4708-6.0117v6.9431c0 1.288 1.0475 2.3359 2.3369 2.3359 1.2912 0 2.3358-1.0479 2.3358-2.3359v-6.9453l3.4733 6.0138c0.43301 0.74923 1.2183 1.1687 2.025 1.1687 0.39764 0 0.79885-0.10147 1.1675-0.31084 1.1165-0.64776 1.4994-2.0762 0.85387-3.1934l-3.4716-6.012 6.0132 3.4717c0.36941 0.21151 0.76884 0.31298 1.1661 0.31298 0.8085 0 1.5938-0.41945 2.0268-1.169 0.64522-1.1179 0.26152-2.5464-0.85601-3.1913l-6.0139-3.4728h6.9438c1.2904 0 2.3372-1.0458 2.3372-2.3356" fill="#000" fill-opacity=".87"/>
<path d="m15.6 19.2v3.6467c0 1.2999 1.0746 2.3533 2.4002 2.3533 1.3263 0 2.3998-1.0534 2.3998-2.3533v-3.6467h-4.8z" fill="#EE3A4F"/>
</g>
</g>
</g>
</g>
</svg>
