<?xml version="1.0" encoding="UTF-8"?>
<svg width="141px" height="96px" viewBox="0 0 141 96" version="1.1" xmlns="http://www.w3.org/2000/svg" xmlns:xlink="http://www.w3.org/1999/xlink">
    <!-- Generator: Sketch 49.3 (51167) - http://www.bohemiancoding.com/sketch -->
    <title>Group 4</title>
    <desc>Created with Sketch.</desc>
    <defs>
        <polygon id="path-1" points="22.7822505 52.8981021 16.4504803 41.8274763 10.1187101 52.8981021 0 52.8981021 16.4504803 24.1360162 32.9009605 52.8981021"></polygon>
        <filter x="0.0%" y="0.0%" width="100.0%" height="100.0%" filterUnits="objectBoundingBox" id="filter-2">
            <feOffset dx="0" dy="0" in="SourceAlpha" result="shadowOffsetOuter1"></feOffset>
            <feColorMatrix values="0 0 0 0 0   0 0 0 0 0   0 0 0 0 0  0 0 0 0.5 0" type="matrix" in="shadowOffsetOuter1"></feColorMatrix>
        </filter>
    </defs>
    <g id="Logo" stroke="none" stroke-width="1" fill="none" fill-rule="evenodd">
        <g transform="translate(-619.000000, -1101.000000)" id="Group-4">
            <g transform="translate(620.000000, 1101.000000)">
                <g id="Group-3" transform="translate(43.000000, 0.000000)" fill-rule="nonzero">
                    <g id="Group" transform="translate(0.658537, 18.341463)">
                        <ellipse id="Oval" fill="#4A90E2" cx="10.2116435" cy="6.63605256" rx="6.40865003" ry="6.51400441"></ellipse>
                        <polygon id="Shape" fill="#4A90E2" points="10.2158612 25.5287208 0 15.1154884 0 35.9419532 20.4317224 35.9419532 20.4317224 15.1154884"></polygon>
                        <polygon id="path18" fill="#3A71B0" transform="translate(10.215861, 24.121800) rotate(-180.000000) translate(-10.215861, -24.121800) " points="14.147934 33.128112 10.2158612 26.1949912 6.28378843 33.128112 0 33.128112 10.2158612 15.1154884 20.4317224 33.128112"></polygon>
                    </g>
                    <g id="Group" transform="translate(32.853659, 18.341463)">
                        <ellipse id="Oval" fill="#FB8D20" cx="10.2116435" cy="6.63605256" rx="6.40865003" ry="6.51400441"></ellipse>
                        <polygon id="Shape" fill="#FB8D20" points="10.2158612 25.5287208 0 15.1154884 0 35.9419532 20.4317224 35.9419532 20.4317224 15.1154884"></polygon>
                        <polygon id="path18" fill="#C7701A" transform="translate(10.215861, 24.121800) rotate(-180.000000) translate(-10.215861, -24.121800) " points="14.147934 33.128112 10.2158612 26.1949912 6.28378843 33.128112 0 33.128112 10.2158612 15.1154884 20.4317224 33.128112"></polygon>
                    </g>
                    <g id="Group" transform="translate(10.414634, 0.780488)">
                        <ellipse id="Oval" fill="#4DBA87" cx="16.4436885" cy="10.596275" rx="10.3197732" ry="10.4013917"></ellipse>
                        <polygon id="Shape" fill="#42B883" points="16.4504803 40.7635931 0 24.1360162 0 57.3911701 32.9009605 57.3911701 32.9009605 24.1360162"></polygon>
                        <g id="path18" transform="translate(16.450480, 38.517059) rotate(-180.000000) translate(-16.450480, -38.517059) ">
                            <use fill="black" fill-opacity="1" filter="url(#filter-2)" xlink:href="#path-1"></use>
                            <use fill="#435466" fill-rule="evenodd" xlink:href="#path-1"></use>
                        </g>
                    </g>
                </g>
                <text id="VuePeople" font-family="ProximaNova-Bold, Proxima Nova" font-size="30" font-weight="bold" letter-spacing="-0.699999988" fill="#212121">
                    <tspan x="0" y="90">VuePeople</tspan>
                </text>
            </g>
        </g>
    </g>
</svg>