<?xml version="1.0" encoding="UTF-8"?>
<svg width="151px" height="108px" viewBox="0 0 151 108" version="1.1" xmlns="http://www.w3.org/2000/svg" xmlns:xlink="http://www.w3.org/1999/xlink">
    <!-- Generator: Sketch 49.3 (51167) - http://www.bohemiancoding.com/sketch -->
    <title>Group 9</title>
    <desc>Created with Sketch.</desc>
    <defs>
        <linearGradient x1="0%" y1="0%" x2="100%" y2="100%" id="linearGradient-1">
            <stop stop-color="#F6F6F6" offset="0%"></stop>
            <stop stop-color="#DFDFDF" offset="100%"></stop>
        </linearGradient>
        <polygon id="path-2" points="18.2258004 42.3184817 13.1603842 33.461981 8.09496806 42.3184817 0 42.3184817 13.1603842 19.308813 26.3207684 42.3184817"></polygon>
        <filter x="0.0%" y="0.0%" width="100.0%" height="100.0%" filterUnits="objectBoundingBox" id="filter-3">
            <feOffset dx="0" dy="0" in="SourceAlpha" result="shadowOffsetOuter1"></feOffset>
            <feColorMatrix values="0 0 0 0 0   0 0 0 0 0   0 0 0 0 0  0 0 0 0.5 0" type="matrix" in="shadowOffsetOuter1"></feColorMatrix>
        </filter>
    </defs>
    <g id="Logo" stroke="none" stroke-width="1" fill="none" fill-rule="evenodd">
        <g transform="translate(-625.000000, -1383.000000)" id="Group-5">
            <g transform="translate(551.000000, 1337.000000)">
                <g id="Group-9" transform="translate(75.000000, 46.000000)">
                    <g id="Group-2" transform="translate(43.000000, 0.000000)">
                        <path d="M22.3130667,0 L41.6869333,0 C48.112,0 51.3237333,0 54.7824,1.09333333 C58.5584,2.46773333 61.5322667,5.4416 62.9066667,9.2176 C64,12.6757333 64,15.8885333 64,22.3130667 L64,41.6869333 C64,48.112 64,51.3237333 62.9066667,54.7824 C61.5322667,58.5584 58.5584,61.5322667 54.7824,62.9061333 C51.3237333,64 48.112,64 41.6869333,64 L22.3130667,64 C15.888,64 12.6757333,64 9.2176,62.9061333 C5.4416,61.5322667 2.46773333,58.5584 1.09333333,54.7824 C0,51.3237333 0,48.112 0,41.6869333 L0,22.3130667 C0,15.8885333 0,12.6757333 1.09333333,9.2176 C2.46773333,5.4416 5.4416,2.46773333 9.2176,1.09333333 C12.6757333,0 15.888,0 22.3130667,0 L22.3130667,0" id="Green-Blue-Icon" fill="url(#linearGradient-1)"></path>
                        <g id="Group" transform="translate(10.926829, 21.073171)" fill-rule="nonzero">
                            <ellipse id="Oval" fill="#4A90E2" cx="8.16931478" cy="5.30884205" rx="5.12692002" ry="5.21120353"></ellipse>
                            <polygon id="Shape" fill="#4A90E2" points="8.17268895 20.4229766 0 12.0923907 0 28.7535626 16.3453779 28.7535626 16.3453779 12.0923907"></polygon>
                            <polygon id="path18" fill="#3A71B0" transform="translate(8.172689, 19.297440) rotate(-180.000000) translate(-8.172689, -19.297440) " points="11.3183472 26.5024896 8.17268895 20.955993 5.02703074 26.5024896 0 26.5024896 8.17268895 12.0923907 16.3453779 26.5024896"></polygon>
                        </g>
                        <g id="Group" transform="translate(36.682927, 21.073171)" fill-rule="nonzero">
                            <ellipse id="Oval" fill="#FB8D20" cx="8.16931478" cy="5.30884205" rx="5.12692002" ry="5.21120353"></ellipse>
                            <polygon id="Shape" fill="#FB8D20" points="8.17268895 20.4229766 0 12.0923907 0 28.7535626 16.3453779 28.7535626 16.3453779 12.0923907"></polygon>
                            <polygon id="path18" fill="#C7701A" transform="translate(8.172689, 19.297440) rotate(-180.000000) translate(-8.172689, -19.297440) " points="11.3183472 26.5024896 8.17268895 20.955993 5.02703074 26.5024896 0 26.5024896 8.17268895 12.0923907 16.3453779 26.5024896"></polygon>
                        </g>
                        <g id="Group" transform="translate(18.731707, 7.024390)" fill-rule="nonzero">
                            <ellipse id="Oval" fill="#4DBA87" cx="13.1549508" cy="8.47702003" rx="8.25581858" ry="8.32111339"></ellipse>
                            <polygon id="Shape" fill="#42B883" points="13.1603842 32.6108745 0 19.308813 0 45.912936 26.3207684 45.912936 26.3207684 19.308813"></polygon>
                            <g id="path18" transform="translate(13.160384, 30.813647) rotate(-180.000000) translate(-13.160384, -30.813647) ">
                                <use fill="black" fill-opacity="1" filter="url(#filter-3)" xlink:href="#path-2"></use>
                                <use fill="#435466" fill-rule="evenodd" xlink:href="#path-2"></use>
                            </g>
                        </g>
                    </g>
                    <text id="VuePeople" font-family="ProximaNova-Bold, Proxima Nova" font-size="32" font-weight="bold" letter-spacing="-0.74666661" fill="#FFFFFF">
                        <tspan x="0" y="102">VuePeople</tspan>
                    </text>
                </g>
            </g>
        </g>
    </g>
</svg>