<?xml version="1.0" encoding="UTF-8"?>
<svg version="1.1" viewBox="0 0 306 277" xmlns="http://www.w3.org/2000/svg" xmlns:xlink="http://www.w3.org/1999/xlink">
<title>Vertical</title>
<desc>Created with Sketch.</desc>
<defs>
<polygon id="a" points="73.49 169.09 53.065 133.71 32.64 169.09 0 169.09 53.065 77.153 106.13 169.09"/>
<filter id="b" x="0%" y="0%" width="100%" height="100%">
<feOffset dx="0" dy="0" in="SourceAlpha" result="shadowOffsetOuter1"/>
<feColorMatrix in="shadowOffsetOuter1" values="0 0 0 0 0   0 0 0 0 0   0 0 0 0 0  0 0 0 0.5 0"/>
</filter>
</defs>
<g fill="none" fill-rule="evenodd">
<g transform="translate(-359 -732)">
<g transform="translate(359 731)">
<g transform="translate(64)" fill-rule="nonzero">
<g transform="translate(0 55)">
<ellipse cx="33.395" cy="21.325" rx="20.958" ry="20.933" fill="#4A90E2"/>
<path d="m52.553 62.861l14.264-14.287v14.287h-14.264zm-22.353 52.639h-30.2v-66.926l30.2 30.25v36.676z" fill="#4A90E2"/>
<path d="m30.2 65.295v35.604l-30.2-52.326h20.549l9.651 16.722zm7.8209-2.4347l8.2458-14.287h20.549l-8.2459 14.287h-20.549z" fill="#3A71B0"/>
</g>
<g transform="translate(113 55)">
<ellipse cx="33.395" cy="21.325" rx="20.958" ry="20.933" fill="#FB8D20"/>
<path d="m36.2 79.24l30.616-30.666v66.926h-30.616v-36.26zm-36.2-16.379v-14.287l14.264 14.287h-14.264z" fill="#FB8D20"/>
<path d="m28.795 62.861h-20.549l-8.2459-14.287h20.549l8.2458 14.287zm7.4052 3.155l10.067-17.442h20.549l-30.616 53.046v-35.604z" fill="#C7701A"/>
</g>
<g transform="translate(36.636 .90196)">
<ellipse cx="53.043" cy="33.872" rx="33.289" ry="33.249" fill="#4DBA87"/>
<polygon points="53.065 130.31 0 77.153 0 183.46 106.13 183.46 106.13 77.153" fill="#42B883"/>
<g transform="translate(53.065 123.12) rotate(180) translate(-53.065 -123.12)">
<use fill="black" filter="url(#b)" xlink:href="#a"/>
<use fill="#435466" fill-rule="evenodd" xlink:href="#a"/>
</g>
</g>
</g>
<g transform="translate(0 215)">
<path d="m40.16 0l-16.483 49.582h-7.2637l-16.413-49.582h10.057l9.9876 32.312 9.9876-32.312h10.127zm30.242 49.582h-8.8701v-3.3426c-2.3747 2.507-5.7272 3.7604-9.0796 3.7604-3.6319 0-6.5653-1.1838-8.5907-3.2033-2.9334-2.9248-3.7017-6.337-3.7017-10.306v-23.189h9.0796v21.936c0 4.9443 3.143 6.6156 6.0065 6.6156 2.8636 0 6.0764-1.6713 6.0764-6.6156v-21.936h9.0796v36.281zm36.598-15.32h-22.769c0 4.6657 2.8636 8.078 7.9621 8.078 3.9811 0 5.9367-1.1142 8.2415-3.4123l5.5176 5.3621c-3.7017 3.6908-7.2637 5.7103-13.829 5.7103-8.5907 0-16.832-3.8997-16.832-18.593 0-11.838 6.4256-18.524 15.854-18.524 10.127 0 15.854 7.3816 15.854 17.34v4.039zm-8.9399-6.1978c-0.069843-1.6017-0.27937-2.5766-0.83812-3.8997-0.97781-2.1588-3.0033-3.7604-6.0764-3.7604-3.0731 0-5.0986 1.6017-6.0764 3.7604-0.55875 1.3231-0.76828 2.2981-0.83812 3.8997h13.829z" fill="#35495E"/>
<path d="m148.71 15.488c0 8.4419-6.1492 15.488-16.421 15.488h-9.5731v18.698h-9.7129v-49.674h19.286c10.272 0 16.421 7.0465 16.421 15.488zm-9.7129 0c0-4.0465-2.7951-6.8372-7.1973-6.8372h-9.084v13.605h9.084c4.4022 0 7.1973-2.7209 7.1973-6.7674zm42.904 18.837h-22.78c0 4.6744 2.865 8.093 7.966 8.093 3.983 0 5.9395-1.1163 8.2455-3.4186l5.5203 5.3721c-3.7035 3.6977-7.2672 5.7209-13.836 5.7209-8.5949 0-16.84-3.907-16.84-18.628 0-11.86 6.4287-18.558 15.862-18.558 10.132 0 15.862 7.3953 15.862 17.372v4.0465zm-8.9442-6.2093c-0.069877-1.6047-0.27951-2.5814-0.83852-3.907-0.97828-2.1628-3.0047-3.7674-6.0793-3.7674-3.0746 0-5.101 1.6047-6.0793 3.7674-0.55902 1.3256-0.76865 2.3023-0.83852 3.907h13.836zm43.114 3.3488c0 6.6279-0.83852 10.744-4.1227 14.163-2.2361 2.3721-5.9395 4.4651-11.32 4.4651-5.3805 0-9.0141-2.093-11.25-4.4651-3.2842-3.4186-4.1227-7.5349-4.1227-14.163 0-6.5581 0.83852-10.674 4.1227-14.093 2.2361-2.3721 5.8697-4.4651 11.25-4.4651 5.3805 0 9.084 2.093 11.32 4.4651 3.2842 3.4186 4.1227 7.5349 4.1227 14.093zm-9.084 0c0-3.7674-0.20963-6.907-2.0963-8.7907-1.0482-1.0465-2.4457-1.6047-4.2625-1.6047-1.8168 0-3.1445 0.55814-4.1926 1.6047-1.8867 1.8837-2.0963 5.0233-2.0963 8.7907 0 3.7674 0.20963 6.9767 2.0963 8.8605 1.0482 1.0465 2.3758 1.6047 4.1926 1.6047 1.8168 0 3.2143-0.55814 4.2625-1.6047 1.8867-1.8837 2.0963-5.093 2.0963-8.8605zm44.721 0c0 5.4419-0.069877 11.721-3.7035 15.349-2.0264 2.0233-5.3106 3.2791-8.8744 3.2791-3.7035 0-6.4287-0.97674-8.8045-3.6279v16.535h-9.084v-49.674h8.8045v3.4186c2.5156-2.7907 5.2408-3.8372 9.084-3.8372 3.5637 0 6.8479 1.2558 8.8744 3.2791 3.6336 3.6279 3.7035 9.8372 3.7035 15.279zm-9.084 0c0-5.9302-0.69877-10.395-6.1492-10.395-5.4504 0-6.1492 4.4651-6.1492 10.395 0 5.9302 0.69877 10.465 6.1492 10.465 5.4504 0 6.1492-4.5349 6.1492-10.465zm29.698 18.209h-5.1709c-7.4768 0-10.621-5.2326-10.621-10.395v-39.279h9.084v38.721c0 2.1628 0.9084 3.2791 3.2143 3.2791h3.4938v7.6744zm33.681-15.349h-22.78c0 4.6744 2.865 8.093 7.966 8.093 3.983 0 5.9395-1.1163 8.2455-3.4186l5.5203 5.3721c-3.7035 3.6977-7.2672 5.7209-13.836 5.7209-8.5949 0-16.84-3.907-16.84-18.628 0-11.86 6.4287-18.558 15.862-18.558 10.132 0 15.862 7.3953 15.862 17.372v4.0465zm-8.9442-6.2093c-0.069877-1.6047-0.27951-2.5814-0.83852-3.907-0.97828-2.1628-3.0047-3.7674-6.0793-3.7674-3.0746 0-5.101 1.6047-6.0793 3.7674-0.55902 1.3256-0.76865 2.3023-0.83852 3.907h13.836z" fill="#42B883"/>
</g>
</g>
</g>
</g>
</svg>
