<?xml version="1.0" encoding="UTF-8"?>
<svg width="180px" height="184px" viewBox="0 0 180 184" version="1.1" xmlns="http://www.w3.org/2000/svg" xmlns:xlink="http://www.w3.org/1999/xlink">
    <!-- Generator: Sketch 49.3 (51167) - http://www.bohemiancoding.com/sketch -->
    <title>Icon only</title>
    <desc>Created with Sketch.</desc>
    <defs>
        <polygon id="path-1" points="73.4895094 169.094611 53.0648948 133.706136 32.6402802 169.094611 0 169.094611 53.0648948 77.1534348 106.12979 169.094611"></polygon>
        <filter x="0.0%" y="0.0%" width="100.0%" height="100.0%" filterUnits="objectBoundingBox" id="filter-2">
            <feOffset dx="0" dy="0" in="SourceAlpha" result="shadowOffsetOuter1"></feOffset>
            <feColorMatrix values="0 0 0 0 0   0 0 0 0 0   0 0 0 0 0  0 0 0 0.5 0" type="matrix" in="shadowOffsetOuter1"></feColorMatrix>
        </filter>
    </defs>
    <g id="Logo" stroke="none" stroke-width="1" fill="none" fill-rule="evenodd">
        <g id="Logo-2" transform="translate(-422.000000, -276.000000)" fill-rule="nonzero">
            <g id="Icon-only" transform="translate(422.000000, 275.000000)">
                <g id="Group" transform="translate(0.000000, 55.000000)">
                    <ellipse id="Oval" fill="#4A90E2" cx="33.3945055" cy="21.3250446" rx="20.9578115" ry="20.9328412"></ellipse>
                    <path d="M52.5530352,62.8607694 L66.8165969,48.5738262 L66.8165969,62.8607694 L52.5530352,62.8607694 Z M30.2004357,115.499952 L0,115.499952 L0,48.5738262 L30.2004357,78.823768 L30.2004357,115.499952 Z" id="Combined-Shape" fill="#4A90E2"></path>
                    <path d="M30.2004357,65.2954369 L30.2004357,100.899636 L2.98427949e-13,48.5738262 L20.5494843,48.5738262 L30.2004357,65.2954369 Z M38.0213403,62.8607694 L46.2671126,48.5738262 L66.8165969,48.5738262 L58.5707252,62.8607694 L38.0213403,62.8607694 Z" id="Combined-Shape" fill="#3A71B0"></path>
                </g>
                <g id="Group" transform="translate(113.000000, 55.000000)">
                    <ellipse id="Oval" fill="#FB8D20" cx="33.3945055" cy="21.3250446" rx="20.9578115" ry="20.9328412"></ellipse>
                    <path d="M36.2004357,79.2401749 L66.8165969,48.5738262 L66.8165969,115.499952 L36.2004357,115.499952 L36.2004357,79.2401749 Z M0,62.8607694 L0,48.5738262 L14.2635617,62.8607694 L0,62.8607694 Z" id="Combined-Shape" fill="#FB8D20"></path>
                    <path d="M28.7952566,62.8607694 L8.24587164,62.8607694 L2.98427949e-13,48.5738262 L20.5494843,48.5738262 L28.7952566,62.8607694 Z M36.2004357,66.0157389 L46.2671126,48.5738262 L66.8165969,48.5738262 L36.2004357,101.619929 L36.2004357,66.0157389 Z" id="Combined-Shape" fill="#C7701A"></path>
                </g>
                <g id="Group" transform="translate(36.635541, 0.901961)">
                    <ellipse id="Oval" fill="#4DBA87" cx="53.0429864" cy="33.8721605" rx="33.2888567" ry="33.2491946"></ellipse>
                    <polygon id="Shape" fill="#42B883" points="53.0648948 130.305316 0 77.1534348 0 183.457198 106.12979 183.457198 106.12979 77.1534348"></polygon>
                    <g id="path18" transform="translate(53.064895, 123.124023) rotate(-180.000000) translate(-53.064895, -123.124023) ">
                        <use fill="black" fill-opacity="1" filter="url(#filter-2)" xlink:href="#path-1"></use>
                        <use fill="#435466" fill-rule="evenodd" xlink:href="#path-1"></use>
                    </g>
                </g>
            </g>
        </g>
    </g>
</svg>