<?xml version="1.0" encoding="UTF-8"?>
<svg width="306px" height="277px" viewBox="0 0 306 277" version="1.1" xmlns="http://www.w3.org/2000/svg" xmlns:xlink="http://www.w3.org/1999/xlink">
    <!-- Generator: Sketch 49.3 (51167) - http://www.bohemiancoding.com/sketch -->
    <title>Vertical</title>
    <desc>Created with Sketch.</desc>
    <defs>
        <polygon id="path-1" points="73.4895094 169.094611 53.0648948 133.706136 32.6402802 169.094611 0 169.094611 53.0648948 77.1534348 106.12979 169.094611"></polygon>
        <filter x="0.0%" y="0.0%" width="100.0%" height="100.0%" filterUnits="objectBoundingBox" id="filter-2">
            <feOffset dx="0" dy="0" in="SourceAlpha" result="shadowOffsetOuter1"></feOffset>
            <feColorMatrix values="0 0 0 0 0   0 0 0 0 0   0 0 0 0 0  0 0 0 0.5 0" type="matrix" in="shadowOffsetOuter1"></feColorMatrix>
        </filter>
    </defs>
    <g id="Logo" stroke="none" stroke-width="1" fill="none" fill-rule="evenodd">
        <g id="Logo-2" transform="translate(-359.000000, -732.000000)">
            <g id="Vertical" transform="translate(359.000000, 731.000000)">
                <g id="Icon" transform="translate(64.000000, 0.000000)" fill-rule="nonzero">
                    <g id="Group" transform="translate(0.000000, 55.000000)">
                        <ellipse id="Oval" fill="#4A90E2" cx="33.3945055" cy="21.3250446" rx="20.9578115" ry="20.9328412"></ellipse>
                        <path d="M52.5530352,62.8607694 L66.8165969,48.5738262 L66.8165969,62.8607694 L52.5530352,62.8607694 Z M30.2004357,115.499952 L0,115.499952 L0,48.5738262 L30.2004357,78.823768 L30.2004357,115.499952 Z" id="Combined-Shape" fill="#4A90E2"></path>
                        <path d="M30.2004357,65.2954369 L30.2004357,100.899636 L2.98427949e-13,48.5738262 L20.5494843,48.5738262 L30.2004357,65.2954369 Z M38.0213403,62.8607694 L46.2671126,48.5738262 L66.8165969,48.5738262 L58.5707252,62.8607694 L38.0213403,62.8607694 Z" id="Combined-Shape" fill="#3A71B0"></path>
                    </g>
                    <g id="Group" transform="translate(113.000000, 55.000000)">
                        <ellipse id="Oval" fill="#FB8D20" cx="33.3945055" cy="21.3250446" rx="20.9578115" ry="20.9328412"></ellipse>
                        <path d="M36.2004357,79.2401749 L66.8165969,48.5738262 L66.8165969,115.499952 L36.2004357,115.499952 L36.2004357,79.2401749 Z M0,62.8607694 L0,48.5738262 L14.2635617,62.8607694 L0,62.8607694 Z" id="Combined-Shape" fill="#FB8D20"></path>
                        <path d="M28.7952566,62.8607694 L8.24587164,62.8607694 L2.98427949e-13,48.5738262 L20.5494843,48.5738262 L28.7952566,62.8607694 Z M36.2004357,66.0157389 L46.2671126,48.5738262 L66.8165969,48.5738262 L36.2004357,101.619929 L36.2004357,66.0157389 Z" id="Combined-Shape" fill="#C7701A"></path>
                    </g>
                    <g id="Group" transform="translate(36.635541, 0.901961)">
                        <ellipse id="Oval" fill="#4DBA87" cx="53.0429864" cy="33.8721605" rx="33.2888567" ry="33.2491946"></ellipse>
                        <polygon id="Shape" fill="#42B883" points="53.0648948 130.305316 0 77.1534348 0 183.457198 106.12979 183.457198 106.12979 77.1534348"></polygon>
                        <g id="path18" transform="translate(53.064895, 123.124023) rotate(-180.000000) translate(-53.064895, -123.124023) ">
                            <use fill="black" fill-opacity="1" filter="url(#filter-2)" xlink:href="#path-1"></use>
                            <use fill="#435466" fill-rule="evenodd" xlink:href="#path-1"></use>
                        </g>
                    </g>
                </g>
                <g id="Vuepeople" transform="translate(0.000000, 215.000000)">
                    <path d="M40.1599217,0 L23.676893,49.5821727 L16.4131854,49.5821727 L0,0 L10.0574413,0 L20.0450392,32.3119777 L30.0326371,0 L40.1599217,0 Z M70.4020888,49.5821727 L61.5319843,49.5821727 L61.5319843,46.2395543 C59.1573107,48.7465181 55.8048303,50 52.4523499,50 C48.8204961,50 45.8870757,48.816156 43.8616188,46.7966574 C40.9281984,43.8718663 40.1599217,40.45961 40.1599217,36.4902507 L40.1599217,13.3008357 L49.2395561,13.3008357 L49.2395561,35.2367688 C49.2395561,40.1810585 52.3825065,41.8523677 55.2460836,41.8523677 C58.1096606,41.8523677 61.3224543,40.1810585 61.3224543,35.2367688 L61.3224543,13.3008357 L70.4020888,13.3008357 L70.4020888,49.5821727 Z M107,34.2618384 L84.2310705,34.2618384 C84.2310705,38.9275766 87.0946475,42.3398329 92.1932115,42.3398329 C96.174282,42.3398329 98.1298956,41.2256267 100.434726,38.9275766 L105.95235,44.2896936 C102.250653,47.9805014 98.6886423,50 92.1233681,50 C83.5326371,50 75.2911227,46.1002786 75.2911227,31.4066852 C75.2911227,19.5682451 81.7167102,12.8830084 91.1455614,12.8830084 C101.272846,12.8830084 107,20.264624 107,30.2228412 L107,34.2618384 Z M98.0600522,28.0640669 C97.9902089,26.4623955 97.7806789,25.4874652 97.2219321,24.1643454 C96.2441253,22.005571 94.2186684,20.4038997 91.1455614,20.4038997 C88.0724543,20.4038997 86.0469974,22.005571 85.0691906,24.1643454 C84.5104439,25.4874652 84.3009138,26.4623955 84.2310705,28.0640669 L98.0600522,28.0640669 Z" id="Vue" fill="#35495E"></path>
                    <path d="M148.707096,15.4883721 C148.707096,23.9302326 142.557929,30.9767442 132.286025,30.9767442 L122.712889,30.9767442 L122.712889,49.6744186 L113,49.6744186 L113,0 L132.286025,0 C142.557929,0 148.707096,7.04651163 148.707096,15.4883721 Z M138.994207,15.4883721 C138.994207,11.4418605 136.199131,8.65116279 131.796886,8.65116279 L122.712889,8.65116279 L122.712889,22.255814 L131.796886,22.255814 C136.199131,22.255814 138.994207,19.5348837 138.994207,15.4883721 Z M181.898624,34.3255814 L159.118755,34.3255814 C159.118755,39 161.983707,42.4186047 167.084721,42.4186047 C171.067705,42.4186047 173.024258,41.3023256 175.330196,39 L180.850471,44.372093 C177.146995,48.0697674 173.583273,50.0930233 167.014844,50.0930233 C158.419986,50.0930233 150.174511,46.1860465 150.174511,31.4651163 C150.174511,19.6046512 156.603186,12.9069767 166.036568,12.9069767 C176.168718,12.9069767 181.898624,20.3023256 181.898624,30.2790698 L181.898624,34.3255814 Z M172.954381,28.1162791 C172.884504,26.5116279 172.674873,25.5348837 172.115858,24.2093023 C171.137581,22.0465116 169.111151,20.4418605 166.036568,20.4418605 C162.961984,20.4418605 160.935554,22.0465116 159.957277,24.2093023 C159.398262,25.5348837 159.188631,26.5116279 159.118755,28.1162791 L172.954381,28.1162791 Z M216.068429,31.4651163 C216.068429,38.0930233 215.229906,42.2093023 211.945692,45.627907 C209.709631,48 206.006155,50.0930233 200.625634,50.0930233 C195.245112,50.0930233 191.611513,48 189.375453,45.627907 C186.091238,42.2093023 185.252715,38.0930233 185.252715,31.4651163 C185.252715,24.9069767 186.091238,20.7906977 189.375453,17.372093 C191.611513,15 195.245112,12.9069767 200.625634,12.9069767 C206.006155,12.9069767 209.709631,15 211.945692,17.372093 C215.229906,20.7906977 216.068429,24.9069767 216.068429,31.4651163 Z M206.984432,31.4651163 C206.984432,27.6976744 206.774801,24.5581395 204.888125,22.6744186 C203.839971,21.627907 202.442433,21.0697674 200.625634,21.0697674 C198.808834,21.0697674 197.481173,21.627907 196.43302,22.6744186 C194.546343,24.5581395 194.336713,27.6976744 194.336713,31.4651163 C194.336713,35.2325581 194.546343,38.4418605 196.43302,40.3255814 C197.481173,41.372093 198.808834,41.9302326 200.625634,41.9302326 C202.442433,41.9302326 203.839971,41.372093 204.888125,40.3255814 C206.774801,38.4418605 206.984432,35.2325581 206.984432,31.4651163 Z M251.705648,31.4651163 C251.705648,36.9069767 251.635771,43.1860465 248.002172,46.8139535 C245.975742,48.8372093 242.691528,50.0930233 239.127806,50.0930233 C235.42433,50.0930233 232.699131,49.1162791 230.323316,46.4651163 L230.323316,63 L221.239319,63 L221.239319,13.3255814 L230.043809,13.3255814 L230.043809,16.744186 C232.559377,13.9534884 235.284576,12.9069767 239.127806,12.9069767 C242.691528,12.9069767 245.975742,14.1627907 248.002172,16.1860465 C251.635771,19.8139535 251.705648,26.0232558 251.705648,31.4651163 Z M242.621651,31.4651163 C242.621651,25.5348837 241.922882,21.0697674 236.472484,21.0697674 C231.022085,21.0697674 230.323316,25.5348837 230.323316,31.4651163 C230.323316,37.3953488 231.022085,41.9302326 236.472484,41.9302326 C241.922882,41.9302326 242.621651,37.3953488 242.621651,31.4651163 Z M272.319334,49.6744186 L267.148443,49.6744186 C259.671615,49.6744186 256.527154,44.4418605 256.527154,39.2790698 L256.527154,0 L265.611151,0 L265.611151,38.7209302 C265.611151,40.8837209 266.519551,42 268.825489,42 L272.319334,42 L272.319334,49.6744186 Z M306,34.3255814 L283.22013,34.3255814 C283.22013,39 286.085083,42.4186047 291.186097,42.4186047 C295.16908,42.4186047 297.125634,41.3023256 299.431571,39 L304.951846,44.372093 C301.248371,48.0697674 297.684649,50.0930233 291.11622,50.0930233 C282.521361,50.0930233 274.275887,46.1860465 274.275887,31.4651163 C274.275887,19.6046512 280.704562,12.9069767 290.137944,12.9069767 C300.270094,12.9069767 306,20.3023256 306,30.2790698 L306,34.3255814 Z M297.055757,28.1162791 C296.98588,26.5116279 296.776249,25.5348837 296.217234,24.2093023 C295.238957,22.0465116 293.212527,20.4418605 290.137944,20.4418605 C287.06336,20.4418605 285.03693,22.0465116 284.058653,24.2093023 C283.499638,25.5348837 283.290007,26.5116279 283.22013,28.1162791 L297.055757,28.1162791 Z" id="People" fill="#42B883"></path>
                </g>
            </g>
        </g>
    </g>
</svg>