<?xml version="1.0" encoding="UTF-8"?>
<svg version="1.1" viewBox="0 0 467 140" xmlns="http://www.w3.org/2000/svg" xmlns:xlink="http://www.w3.org/1999/xlink">
<title>Horizontal</title>
<desc>Created with Sketch.</desc>
<defs>
<polygon id="a" points="55.632 128.66 40.171 101.73 24.709 128.66 0 128.66 40.171 58.704 80.341 128.66"/>
<filter id="b" x="0%" y="0%" width="100%" height="100%">
<feOffset dx="0" dy="0" in="SourceAlpha" result="shadowOffsetOuter1"/>
<feColorMatrix in="shadowOffsetOuter1" values="0 0 0 0 0   0 0 0 0 0   0 0 0 0 0  0 0 0 0.5 0"/>
</filter>
</defs>
<g fill="none" fill-rule="evenodd">
<g transform="translate(-279 -1236)">
<g transform="translate(279 1236)">
<g fill-rule="nonzero">
<g transform="translate(0 41)">
<ellipse cx="25.42" cy="16.178" rx="15.953" ry="15.88" fill="#4A90E2"/>
<path d="m40.003 47.687l10.857-10.838v10.838h-10.857zm-17.015 39.933h-22.988v-50.772l22.988 22.948v27.823z" fill="#4A90E2"/>
<path d="m22.988 49.534v27.01l-22.988-39.695h15.642l7.3462 12.685zm5.9532-1.847l6.2766-10.838h15.642l-6.2767 10.838h-15.642z" fill="#3A71B0"/>
</g>
<g transform="translate(86 41)">
<ellipse cx="25.42" cy="16.178" rx="15.953" ry="15.88" fill="#FB8D20"/>
<path d="m27.556 60.113l23.305-23.264v50.772h-23.305v-27.507zm-27.556-12.426v-10.838l10.857 10.838h-10.857z" fill="#FB8D20"/>
<path d="m21.919 47.687h-15.642l-6.2767-10.838h15.642l6.2766 10.838zm5.6368 2.3934l7.6627-13.232h15.642l-23.305 40.242v-27.01z" fill="#C7701A"/>
</g>
<g transform="translate(28)">
<ellipse cx="40.154" cy="25.772" rx="25.2" ry="25.298" fill="#4DBA87"/>
<polygon points="40.171 99.145 0 58.704 0 139.59 80.341 139.59 80.341 58.704" fill="#42B883"/>
<g transform="translate(40.171 93.681) rotate(180) translate(-40.171 -93.681)">
<use fill="black" filter="url(#b)" xlink:href="#a"/>
<use fill="#435466" fill-rule="evenodd" xlink:href="#a"/>
</g>
</g>
</g>
<g transform="translate(161 59)">
<path d="m40.16 0l-16.483 49.582h-7.2637l-16.413-49.582h10.057l9.9876 32.312 9.9876-32.312h10.127zm30.242 49.582h-8.8701v-3.3426c-2.3747 2.507-5.7272 3.7604-9.0796 3.7604-3.6319 0-6.5653-1.1838-8.5907-3.2033-2.9334-2.9248-3.7017-6.337-3.7017-10.306v-23.189h9.0796v21.936c0 4.9443 3.143 6.6156 6.0065 6.6156 2.8636 0 6.0764-1.6713 6.0764-6.6156v-21.936h9.0796v36.281zm36.598-15.32h-22.769c0 4.6657 2.8636 8.078 7.9621 8.078 3.9811 0 5.9367-1.1142 8.2415-3.4123l5.5176 5.3621c-3.7017 3.6908-7.2637 5.7103-13.829 5.7103-8.5907 0-16.832-3.8997-16.832-18.593 0-11.838 6.4256-18.524 15.854-18.524 10.127 0 15.854 7.3816 15.854 17.34v4.039zm-8.9399-6.1978c-0.069843-1.6017-0.27937-2.5766-0.83812-3.8997-0.97781-2.1588-3.0033-3.7604-6.0764-3.7604-3.0731 0-5.0986 1.6017-6.0764 3.7604-0.55875 1.3231-0.76828 2.2981-0.83812 3.8997h13.829z" fill="#35495E"/>
<path d="m148.71 15.488c0 8.4419-6.1492 15.488-16.421 15.488h-9.5731v18.698h-9.7129v-49.674h19.286c10.272 0 16.421 7.0465 16.421 15.488zm-9.7129 0c0-4.0465-2.7951-6.8372-7.1973-6.8372h-9.084v13.605h9.084c4.4022 0 7.1973-2.7209 7.1973-6.7674zm42.904 18.837h-22.78c0 4.6744 2.865 8.093 7.966 8.093 3.983 0 5.9395-1.1163 8.2455-3.4186l5.5203 5.3721c-3.7035 3.6977-7.2672 5.7209-13.836 5.7209-8.5949 0-16.84-3.907-16.84-18.628 0-11.86 6.4287-18.558 15.862-18.558 10.132 0 15.862 7.3953 15.862 17.372v4.0465zm-8.9442-6.2093c-0.069877-1.6047-0.27951-2.5814-0.83852-3.907-0.97828-2.1628-3.0047-3.7674-6.0793-3.7674-3.0746 0-5.101 1.6047-6.0793 3.7674-0.55902 1.3256-0.76865 2.3023-0.83852 3.907h13.836zm43.114 3.3488c0 6.6279-0.83852 10.744-4.1227 14.163-2.2361 2.3721-5.9395 4.4651-11.32 4.4651-5.3805 0-9.0141-2.093-11.25-4.4651-3.2842-3.4186-4.1227-7.5349-4.1227-14.163 0-6.5581 0.83852-10.674 4.1227-14.093 2.2361-2.3721 5.8697-4.4651 11.25-4.4651 5.3805 0 9.084 2.093 11.32 4.4651 3.2842 3.4186 4.1227 7.5349 4.1227 14.093zm-9.084 0c0-3.7674-0.20963-6.907-2.0963-8.7907-1.0482-1.0465-2.4457-1.6047-4.2625-1.6047-1.8168 0-3.1445 0.55814-4.1926 1.6047-1.8867 1.8837-2.0963 5.0233-2.0963 8.7907 0 3.7674 0.20963 6.9767 2.0963 8.8605 1.0482 1.0465 2.3758 1.6047 4.1926 1.6047 1.8168 0 3.2143-0.55814 4.2625-1.6047 1.8867-1.8837 2.0963-5.093 2.0963-8.8605zm44.721 0c0 5.4419-0.069877 11.721-3.7035 15.349-2.0264 2.0233-5.3106 3.2791-8.8744 3.2791-3.7035 0-6.4287-0.97674-8.8045-3.6279v16.535h-9.084v-49.674h8.8045v3.4186c2.5156-2.7907 5.2408-3.8372 9.084-3.8372 3.5637 0 6.8479 1.2558 8.8744 3.2791 3.6336 3.6279 3.7035 9.8372 3.7035 15.279zm-9.084 0c0-5.9302-0.69877-10.395-6.1492-10.395-5.4504 0-6.1492 4.4651-6.1492 10.395 0 5.9302 0.69877 10.465 6.1492 10.465 5.4504 0 6.1492-4.5349 6.1492-10.465zm29.698 18.209h-5.1709c-7.4768 0-10.621-5.2326-10.621-10.395v-39.279h9.084v38.721c0 2.1628 0.9084 3.2791 3.2143 3.2791h3.4938v7.6744zm33.681-15.349h-22.78c0 4.6744 2.865 8.093 7.966 8.093 3.983 0 5.9395-1.1163 8.2455-3.4186l5.5203 5.3721c-3.7035 3.6977-7.2672 5.7209-13.836 5.7209-8.5949 0-16.84-3.907-16.84-18.628 0-11.86 6.4287-18.558 15.862-18.558 10.132 0 15.862 7.3953 15.862 17.372v4.0465zm-8.9442-6.2093c-0.069877-1.6047-0.27951-2.5814-0.83852-3.907-0.97828-2.1628-3.0047-3.7674-6.0793-3.7674-3.0746 0-5.101 1.6047-6.0793 3.7674-0.55902 1.3256-0.76865 2.3023-0.83852 3.907h13.836z" fill="#42B883"/>
</g>
</g>
</g>
</g>
</svg>
