<?xml version="1.0" encoding="UTF-8"?>
<svg width="179px" height="50px" viewBox="0 0 179 50" version="1.1" xmlns="http://www.w3.org/2000/svg" xmlns:xlink="http://www.w3.org/1999/xlink">
    <!-- Generator: Sketch 49.3 (51167) - http://www.bohemiancoding.com/sketch -->
    <title>VuePeps logo</title>
    <desc>Created with Sketch.</desc>
    <defs>
        <linearGradient x1="0%" y1="0%" x2="100%" y2="100%" id="linearGradient-1">
            <stop stop-color="#FFFFFF" offset="0%"></stop>
            <stop stop-color="#DFDFDF" offset="100%"></stop>
        </linearGradient>
        <polygon id="path-2" points="10.2815502 25.4772457 0 15.0850101 0 35.8694813 20.5631003 35.8694813 20.5631003 15.0850101"></polygon>
        <filter x="0.0%" y="0.0%" width="100.0%" height="100.0%" filterUnits="objectBoundingBox" id="filter-3">
            <feOffset dx="0" dy="0" in="SourceAlpha" result="shadowOffsetOuter1"></feOffset>
            <feColorMatrix values="0 0 0 0 0   0 0 0 0 0   0 0 0 0 0  0 0 0 0.5 0" type="matrix" in="shadowOffsetOuter1"></feColorMatrix>
        </filter>
        <polygon id="path-4" points="14.2389065 33.0613138 10.2815502 26.1421727 6.3241938 33.0613138 0 33.0613138 10.2815502 15.0850101 20.5631003 33.0613138"></polygon>
        <filter x="0.0%" y="0.0%" width="100.0%" height="100.0%" filterUnits="objectBoundingBox" id="filter-5">
            <feOffset dx="0" dy="0" in="SourceAlpha" result="shadowOffsetOuter1"></feOffset>
            <feColorMatrix values="0 0 0 0 0   0 0 0 0 0   0 0 0 0 0  0 0 0 0.5 0" type="matrix" in="shadowOffsetOuter1"></feColorMatrix>
        </filter>
    </defs>
    <g id="VuePeople-app-v1" stroke="none" stroke-width="1" fill="none" fill-rule="evenodd">
        <g id="Map---component-(logged-out)" transform="translate(-54.000000, -55.000000)">
            <g id="Google-map" transform="translate(30.000000, 30.000000)">
                <g id="Drawer">
                    <g id="VuePeps-logo" transform="translate(24.000000, 25.000000)">
                        <path d="M17.4320833,0 L32.5679167,0 C37.5875,0 40.0966667,0 42.79875,0.854166667 C45.74875,1.92791667 48.0720833,4.25125 49.1458333,7.20125 C50,9.90291667 50,12.4129167 50,17.4320833 L50,32.5679167 C50,37.5875 50,40.0966667 49.1458333,42.79875 C48.0720833,45.74875 45.74875,48.0720833 42.79875,49.1454167 C40.0966667,50 37.5875,50 32.5679167,50 L17.4320833,50 C12.4125,50 9.90291667,50 7.20125,49.1454167 C4.25125,48.0720833 1.92791667,45.74875 0.854166667,42.79875 C0,40.0966667 0,37.5875 0,32.5679167 L0,17.4320833 C0,12.4129167 0,9.90291667 0.854166667,7.20125 C1.92791667,4.25125 4.25125,1.92791667 7.20125,0.854166667 C9.90291667,0 12.4125,0 17.4320833,0 L17.4320833,0" id="Green-Blue-Icon" fill="url(#linearGradient-1)"></path>
                        <g id="Group" transform="translate(8.536585, 16.463415)" fill-rule="nonzero">
                            <ellipse id="Oval" fill="#4A90E2" cx="6.38227717" cy="4.14753285" rx="4.00540627" ry="4.07125276"></ellipse>
                            <polygon id="Shape" fill="#4A90E2" points="6.38491324 15.9554505 0 9.44718024 0 22.4637207 12.7698265 22.4637207 12.7698265 9.44718024"></polygon>
                            <polygon id="path18" fill="#3A71B0" transform="translate(6.384913, 15.076125) rotate(-180.000000) translate(-6.384913, -15.076125) " points="8.84245872 20.70507 6.38491324 16.3718695 3.92736777 20.70507 0 20.70507 6.38491324 9.44718024 12.7698265 20.70507"></polygon>
                        </g>
                        <g id="Group" transform="translate(28.658537, 16.463415)" fill-rule="nonzero">
                            <ellipse id="Oval" fill="#FB8D20" cx="6.38227717" cy="4.14753285" rx="4.00540627" ry="4.07125276"></ellipse>
                            <polygon id="Shape" fill="#FB8D20" points="6.38491324 15.9554505 0 9.44718024 0 22.4637207 12.7698265 22.4637207 12.7698265 9.44718024"></polygon>
                            <polygon id="path18" fill="#C7701A" transform="translate(6.384913, 15.076125) rotate(-180.000000) translate(-6.384913, -15.076125) " points="8.84245872 20.70507 6.38491324 16.3718695 3.92736777 20.70507 0 20.70507 6.38491324 9.44718024 12.7698265 20.70507"></polygon>
                        </g>
                        <g id="Group" transform="translate(14.634146, 5.487805)" fill-rule="nonzero">
                            <ellipse id="Oval" fill="#4DBA87" cx="10.2773053" cy="6.6226719" rx="6.44985827" ry="6.50086984"></ellipse>
                            <g id="Shape">
                                <use fill="black" fill-opacity="1" filter="url(#filter-3)" xlink:href="#path-2"></use>
                                <use fill="#42B883" fill-rule="evenodd" xlink:href="#path-2"></use>
                            </g>
                            <g id="path18" transform="translate(10.281550, 24.073162) rotate(-180.000000) translate(-10.281550, -24.073162) ">
                                <use fill="black" fill-opacity="1" filter="url(#filter-5)" xlink:href="#path-4"></use>
                                <use fill="#435466" fill-rule="evenodd" xlink:href="#path-4"></use>
                            </g>
                        </g>
                        <path d="M72.8905135,34.4594595 L68.4341655,34.4594595 L62,18 L66.0307418,18 L70.6623395,30.6345476 L75.2939372,18 L79.324679,18 L72.8905135,34.4594595 Z M90.156776,34.4594595 L86.9772468,34.4594595 L86.9772468,32.9541716 C86.1510699,33.8425382 84.6990014,34.7555817 82.721184,34.7555817 C80.0674037,34.7555817 78.8156205,33.3243243 78.8156205,31.0047004 L78.8156205,22.5405405 L81.9951498,22.5405405 L81.9951498,29.7708578 C81.9951498,31.4242068 82.871398,31.9670975 84.2233238,31.9670975 C85.4500713,31.9670975 86.4264622,31.3008226 86.9772468,30.6098707 L86.9772468,22.5405405 L90.156776,22.5405405 L90.156776,34.4594595 Z M98.4101997,34.7555817 C94.7299572,34.7555817 91.9509986,32.3125734 91.9509986,28.4876616 C91.9509986,25.0329025 94.5547076,22.2444183 98.2099144,22.2444183 C101.840086,22.2444183 104.268545,24.9095182 104.268545,28.7837838 L104.268545,29.5240893 L95.2807418,29.5240893 C95.5060628,30.9800235 96.7077746,32.1891892 98.760699,32.1891892 C99.7871612,32.1891892 101.189158,31.7696827 101.965264,31.0293772 L103.392297,33.1022327 C102.190585,34.1880141 100.287874,34.7555817 98.4101997,34.7555817 Z M101.214194,27.3525264 C101.114051,26.2173913 100.31291,24.8108108 98.2099144,24.8108108 C96.232097,24.8108108 95.3808844,26.1680376 95.2557061,27.3525264 L101.214194,27.3525264 Z M109.617832,34.4594595 L106.062767,34.4594595 L106.062767,18 L113.873894,18 C117.504066,18 119.481883,20.4183314 119.481883,23.3055229 C119.481883,26.1680376 117.47903,28.586369 113.873894,28.586369 L109.617832,28.586369 L109.617832,34.4594595 Z M113.373181,25.5017626 C114.775178,25.5017626 115.851712,24.6627497 115.851712,23.3055229 C115.851712,21.9236193 114.775178,21.0846063 113.373181,21.0846063 L109.617832,21.0846063 L109.617832,25.5017626 L113.373181,25.5017626 Z M126.308274,34.7555817 C122.628031,34.7555817 119.849073,32.3125734 119.849073,28.4876616 C119.849073,25.0329025 122.452782,22.2444183 126.107989,22.2444183 C129.73816,22.2444183 132.166619,24.9095182 132.166619,28.7837838 L132.166619,29.5240893 L123.178816,29.5240893 C123.404137,30.9800235 124.605849,32.1891892 126.658773,32.1891892 C127.685235,32.1891892 129.087232,31.7696827 129.863338,31.0293772 L131.290371,33.1022327 C130.088659,34.1880141 128.185949,34.7555817 126.308274,34.7555817 Z M129.112268,27.3525264 C129.012126,26.2173913 128.210984,24.8108108 126.107989,24.8108108 C124.130171,24.8108108 123.278959,26.1680376 123.15378,27.3525264 L129.112268,27.3525264 Z M139.493723,34.7555817 C135.513053,34.7555817 133.109629,31.8683901 133.109629,28.4876616 C133.109629,25.106933 135.513053,22.2444183 139.493723,22.2444183 C143.499429,22.2444183 145.902853,25.106933 145.902853,28.4876616 C145.902853,31.8683901 143.499429,34.7555817 139.493723,34.7555817 Z M139.493723,31.9670975 C141.496576,31.9670975 142.598145,30.3631022 142.598145,28.4876616 C142.598145,26.6368978 141.496576,25.0329025 139.493723,25.0329025 C137.515906,25.0329025 136.414337,26.6368978 136.414337,28.4876616 C136.414337,30.3631022 137.515906,31.9670975 139.493723,31.9670975 Z M154.606919,34.7555817 C153.179886,34.7555817 151.878031,34.1633373 150.876605,32.9294947 L150.876605,39 L147.697076,39 L147.697076,22.5405405 L150.876605,22.5405405 L150.876605,24.0458284 C151.802924,22.8860165 153.129815,22.2444183 154.606919,22.2444183 C157.711341,22.2444183 159.964551,24.5146886 159.964551,28.4876616 C159.964551,32.4606345 157.711341,34.7555817 154.606919,34.7555817 Z M153.605492,31.9670975 C155.433096,31.9670975 156.684879,30.560517 156.684879,28.4876616 C156.684879,26.439483 155.433096,25.0329025 153.605492,25.0329025 C152.57903,25.0329025 151.427389,25.60047 150.876605,26.3901293 L150.876605,30.5851939 C151.402354,31.3501763 152.57903,31.9670975 153.605492,31.9670975 Z M164.888231,34.4594595 L161.708702,34.4594595 L161.708702,18 L164.888231,18 L164.888231,34.4594595 Z M173.141655,34.7555817 C169.461412,34.7555817 166.682454,32.3125734 166.682454,28.4876616 C166.682454,25.0329025 169.286163,22.2444183 172.941369,22.2444183 C176.571541,22.2444183 179,24.9095182 179,28.7837838 L179,29.5240893 L170.012197,29.5240893 C170.237518,30.9800235 171.43923,32.1891892 173.492154,32.1891892 C174.518616,32.1891892 175.920613,31.7696827 176.696719,31.0293772 L178.123752,33.1022327 C176.92204,34.1880141 175.01933,34.7555817 173.141655,34.7555817 Z M175.945649,27.3525264 C175.845506,26.2173913 175.044365,24.8108108 172.941369,24.8108108 C170.963552,24.8108108 170.11234,26.1680376 169.987161,27.3525264 L175.945649,27.3525264 Z" id="VuePeople" fill="#FFFFFF"></path>
                    </g>
                </g>
            </g>
        </g>
    </g>
</svg>