<?xml version="1.0" encoding="UTF-8"?>
<svg width="32px" height="24px" viewBox="0 0 32 24" version="1.1" xmlns="http://www.w3.org/2000/svg" xmlns:xlink="http://www.w3.org/1999/xlink">
    <!-- Generator: Sketch 50.2 (55047) - http://www.bohemiancoding.com/sketch -->
    <title>Fill 1</title>
    <desc>Created with Sketch.</desc>
    <defs></defs>
    <g id="VuePeople-updates-1.1" stroke="none" stroke-width="1" fill="none" fill-rule="evenodd">
        <g id="Map---component-(New-pins---inventory)" transform="translate(-82.000000, -571.000000)" fill="#BDBDBD">
            <path d="M111.249191,590.631582 C110.12158,590.937141 108.966627,591.151476 107.789646,591.005311 C107.016761,590.909377 106.252607,590.641518 106.041743,589.82405 C105.902407,589.283991 105.903365,588.646635 106.052748,588.109114 C106.419548,586.790152 106.85059,585.481567 107.360971,584.208935 C108.222078,582.063673 109.183237,579.958062 110.065732,577.820822 C110.545448,576.659102 110.746172,575.465623 110.267432,574.229661 C109.941963,573.390169 109.432258,572.68135 108.580728,572.384494 C107.112963,571.873321 105.619828,571.762906 104.178465,572.560319 C103.572351,572.895446 103.355741,572.84919 102.831915,572.395846 C102.577391,572.175624 102.305403,571.970636 102.074897,571.727635 C101.074191,570.672428 99.0264137,570.840433 98.0784936,571.747175 C97.6990552,572.110251 97.2836559,572.438331 96.8720124,572.766668 C96.3690302,573.16807 95.8012433,573.330261 95.1785294,573.074067 C94.7322019,572.889834 94.3030568,572.663687 93.868203,572.452222 C92.7214373,571.893119 91.5772256,571.387797 90.2340368,571.789199 C88.9493243,572.173692 87.8290926,572.793495 87.1375743,573.939925 C86.1268589,575.615413 85.6125345,577.496754 84.9747414,579.323319 C84.650662,580.251165 84.3712566,581.194595 84.0723779,582.130904 C83.7516787,583.136561 83.4232802,584.139881 83.1143738,585.148556 C82.7883414,586.213036 82.4774821,587.281656 82.1666603,588.350331 C81.8306002,589.50471 82.0006583,590.595943 82.6960451,591.576466 C83.5705412,592.809374 84.8509535,593.294677 86.3335726,593.275652 C86.8087439,593.269139 87.3083835,593.160711 87.7496784,592.985401 C88.621414,592.640173 89.1395129,591.905724 89.4830093,591.09913 C90.4109866,588.916462 91.2870226,586.712966 92.1778184,584.515432 C92.9226114,582.679483 93.6487198,580.836193 94.4057376,579.004972 C94.6208829,578.485759 95.0698582,578.193631 95.6405932,578.144063 C96.163199,578.09869 96.5357269,578.404194 96.7250142,578.826976 C96.9696042,579.375297 96.9066024,579.967298 96.6969216,580.525518 C96.3975923,581.323887 96.0786018,582.115633 95.7597804,582.906716 C95.1644455,584.382183 94.5611485,585.854358 93.9655695,587.329328 C93.6928681,588.003612 93.4407855,588.678153 93.5558789,589.431407 C93.6372649,589.962303 93.9401622,590.31134 94.4230514,590.488968 C95.8566963,591.01429 97.1795667,590.499585 97.8833474,589.148663 C98.6262063,587.724382 99.3482022,586.290056 100.084338,584.862095 C101.065628,582.957737 102.038936,581.048375 103.044938,579.156418 C103.348624,578.584858 103.709622,578.031864 104.117642,577.527021 C104.443111,577.123521 104.966993,577.082822 105.411011,577.308472 C105.845602,577.530056 105.769117,577.933372 105.751559,578.301636 C105.742207,578.50195 105.709082,578.713654 105.627076,578.895091 C105.178815,579.882882 104.713671,580.863847 104.251495,581.845769 C103.365149,583.730421 102.421304,585.592736 101.605021,587.506515 C100.85974,589.254367 101.185547,590.935706 102.403784,592.38512 C103.923584,594.193985 106.006083,594.567714 108.251917,594.349828 C110.092586,594.171207 111.89228,593.790725 113.637366,593.169782 C113.637366,593.169782 114.453292,591.665611 113.637366,591.072064 C112.821421,590.478536 111.249191,590.631582 111.249191,590.631582" id="Fill-1"></path>
        </g>
    </g>
</svg>